<svg width="281" height="226" viewBox="0 0 281 226" fill="none" xmlns="http://www.w3.org/2000/svg">
<path d="M160.081 199.937C158.138 197.223 155.507 195.237 152.2 194.494C149.317 193.846 146.352 193.956 143.421 193.979L106.358 194.264C103.184 194.288 100.14 197.031 100.288 200.319C100.434 203.579 102.955 206.4 106.358 206.374C117.215 206.29 128.072 206.207 138.928 206.123C141.488 206.104 144.049 206.058 146.609 206.066C147.183 206.068 147.756 206.098 148.33 206.105C148.469 206.106 148.57 206.105 148.641 206.102C148.658 206.107 148.673 206.112 148.696 206.119C148.996 206.201 149.303 206.257 149.605 206.335C149.499 206.338 149.8 206.526 149.951 206.589C149.972 206.63 150.016 206.703 150.09 206.814C150.193 207.007 150.499 207.594 150.512 207.575C150.97 208.733 151.349 209.92 151.645 211.13C152.35 213.797 152.505 214.354 152.607 216.856C152.735 220.017 155.307 223.062 158.677 222.912C161.856 222.77 164.885 220.246 164.747 216.856C164.515 211.144 163.51 204.727 160.081 199.937Z" fill="#E6E6E6"/>
<path d="M108.536 213.601C107.84 209.393 107.158 205.182 106.448 200.976C105.728 196.709 104.257 192.802 100.929 190.002C100.039 189.254 99.1171 188.555 98.1911 187.859C97.8654 187.614 97.5403 187.369 97.2185 187.119C97.1993 187.104 97.187 187.095 97.1703 187.082C97.135 187.051 97.0925 187.015 97.0355 186.967C95.6482 185.796 94.3077 184.573 93.0308 183.272C91.897 182.117 90.8126 180.913 89.7778 179.66C89.5191 179.347 89.2639 179.031 89.0119 178.712C88.9686 178.658 88.7352 178.357 88.5814 178.16C88.4384 177.964 88.177 177.609 88.1331 177.547C87.8388 177.132 87.5497 176.713 87.2658 176.29C85.3325 173.4 83.6583 170.346 82.2629 167.163C82.1245 166.848 81.9894 166.53 81.8576 166.211C81.8222 166.113 81.7764 165.988 81.7157 165.821C81.4345 165.05 81.1538 164.28 80.8967 163.499C80.3504 161.841 79.8808 160.159 79.4877 158.452C79.2934 157.609 79.1185 156.762 78.9629 155.911C78.8827 155.473 78.8077 155.034 78.7379 154.595C78.7264 154.522 78.6582 154.047 78.618 153.779C78.5884 153.51 78.5332 153.033 78.5258 152.959C78.4813 152.516 78.4418 152.073 78.4074 151.629C78.3298 150.63 78.2773 149.629 78.2499 148.626C78.2033 146.845 78.2353 145.063 78.3459 143.282C78.4089 142.281 78.4985 141.283 78.6089 140.286C78.6156 140.225 78.6208 140.176 78.6256 140.133C78.6323 140.088 78.6401 140.038 78.6493 139.975C78.731 139.424 78.817 138.874 78.9131 138.326C79.2772 136.245 79.7507 134.184 80.3317 132.152C80.6068 131.191 80.9056 130.238 81.2281 129.293C81.3719 128.873 81.5202 128.455 81.6731 128.039C81.6631 128.066 82.1216 126.897 82.1277 126.858C83.9468 122.571 86.9222 118.662 86.9263 113.792C86.9291 110.494 84.1324 107.335 80.8562 107.488C79.2227 107.549 77.6769 108.241 76.5445 109.417C75.4122 110.593 74.7817 112.161 74.786 113.792C74.786 113.866 74.7857 113.929 74.7855 113.99C74.7549 114.093 74.7294 114.179 74.7064 114.254C74.3516 115.023 73.917 115.754 73.5277 116.504C72.4614 118.556 71.5513 120.676 70.6867 122.827C69.2714 126.33 68.188 129.957 67.4509 133.662C65.8485 141.778 65.7242 150.116 67.0837 158.276C69.4372 172.586 77.1987 186.285 87.9889 195.492C88.9253 196.291 89.8845 197.063 90.8528 197.82C91.2534 198.133 91.6575 198.44 92.0635 198.746C92.2554 198.89 93.0505 199.515 92.7008 199.212C93.4529 199.853 93.7694 200.175 93.9627 200.646C93.9906 200.755 94.0288 200.903 94.0805 201.105C94.2166 201.637 94.3459 202.167 94.4534 202.707C95.3926 207.419 96.0454 212.21 96.8299 216.953C97.3691 220.211 101.391 222.332 104.297 221.356C107.68 220.219 109.114 217.093 108.536 213.601Z" fill="#E6E6E6"/>
<path d="M160.695 225.823C158.145 225.83 155.697 224.827 153.888 223.036C152.079 221.244 151.055 218.81 151.043 216.267V209.36C143.793 210.17 118.969 209.982 111.853 208.842V215.991C111.834 218.532 110.808 220.962 109 222.752C107.192 224.542 104.748 225.547 102.201 225.547C99.6539 225.547 97.2099 224.542 95.4019 222.752C93.594 220.962 92.5687 218.532 92.5496 215.991V201.954C82.9116 196.613 74.877 188.803 69.275 179.33C63.6729 169.858 60.7063 159.065 60.6814 148.067C60.6814 129.209 69.249 111.617 84.1875 99.8022C93.9004 92.0942 105.701 87.4586 118.075 86.4909C119.755 86.3595 121.444 86.293 123.098 86.293C128.922 86.293 155.2 87.1905 161.794 89.0827L176.828 74.2015C177.049 73.9797 177.331 73.8287 177.639 73.7676C177.946 73.7064 178.265 73.738 178.554 73.8583C178.846 73.974 179.095 74.175 179.27 74.4348C179.445 74.6946 179.538 75.0011 179.535 75.3141V77.6801L182.462 74.788C182.683 74.566 182.965 74.4148 183.272 74.3535C183.579 74.2923 183.898 74.3239 184.187 74.4443C184.479 74.5599 184.729 74.7609 184.904 75.0208C185.079 75.2807 185.171 75.5874 185.169 75.9006V102.341C192.713 109.125 198.462 117.661 201.908 127.192C205.354 136.723 206.39 146.955 204.924 156.98C203.459 167.006 199.536 176.517 193.504 184.668C187.473 192.82 179.518 199.362 170.346 203.714V216.267C170.333 218.81 169.31 221.244 167.501 223.036C165.692 224.827 163.244 225.83 160.695 225.823ZM151.802 208.502V216.267C151.821 218.607 152.766 220.845 154.432 222.493C156.098 224.141 158.348 225.066 160.694 225.066C163.04 225.066 165.291 224.141 166.957 222.493C168.623 220.845 169.568 218.607 169.587 216.267V203.236L169.804 203.134C180.096 198.262 188.833 190.64 195.045 181.115C202.96 168.96 206.252 154.379 204.325 140.013C202.397 125.646 195.377 112.442 184.536 102.791L184.41 102.678V75.9006C184.413 75.7379 184.365 75.5783 184.274 75.4432C184.183 75.3082 184.053 75.2043 183.901 75.1454C183.75 75.0809 183.582 75.0635 183.421 75.0955C183.26 75.1274 183.112 75.2072 182.997 75.3244L178.776 79.4951V75.3141C178.779 75.1514 178.731 74.9918 178.64 74.8567C178.549 74.7217 178.419 74.6177 178.267 74.5588C178.115 74.4945 177.948 74.4773 177.786 74.5094C177.625 74.5416 177.477 74.6217 177.362 74.7392L162.006 89.939L161.788 89.8709C155.658 87.9572 128.966 87.0499 123.098 87.0499C121.464 87.0499 119.794 87.1156 118.135 87.2456C105.911 88.2015 94.2537 92.7807 84.659 100.395C69.9031 112.066 61.4401 129.441 61.4401 148.067C61.4653 158.968 64.416 169.663 69.9857 179.042C75.5554 188.421 83.5409 196.141 93.1127 201.4L93.3084 201.508V215.991C93.3279 218.331 94.2735 220.568 95.9391 222.216C97.6047 223.864 99.8554 224.788 102.201 224.788C104.547 224.788 106.798 223.864 108.463 222.216C110.129 220.568 111.074 218.331 111.094 215.991V207.936L111.543 208.02C117.938 209.22 144.865 209.409 151.373 208.558L151.802 208.502Z" fill="#3F3D56"/>
<path d="M109.262 45.0799L67.2485 57.6746C65.9122 58.0768 64.7907 58.9917 64.1302 60.2183C63.4697 61.4449 63.3243 62.8829 63.726 64.2163C64.1277 65.5498 65.0436 66.6697 66.2724 67.3299C67.5013 67.9901 68.9427 68.1368 70.2799 67.7376L107.046 56.7134L107.816 56.4825C107.972 52.5234 109.049 48.6547 110.961 45.182C110.721 45.0743 110.465 45.0078 110.202 44.9852C109.886 44.9546 109.566 44.9868 109.262 45.0799Z" fill="#F5A832"/>
<path d="M69.5534 70.4228C68.9957 70.4214 68.4525 70.2453 68.0006 69.9192C67.5487 69.5931 67.211 69.1337 67.0351 68.6057L64.4079 60.6977C64.2982 60.3674 64.2548 60.0189 64.2801 59.6719C64.3054 59.3249 64.399 58.9863 64.5556 58.6754C64.7121 58.3645 64.9285 58.0874 65.1924 57.8599C65.4563 57.6324 65.7625 57.4591 66.0936 57.3497L100.288 46.0454C100.619 45.9359 100.968 45.8926 101.316 45.9178C101.664 45.943 102.003 46.0364 102.315 46.1925C102.627 46.3486 102.905 46.5644 103.133 46.8276C103.361 47.0907 103.534 47.3962 103.644 47.7264L106.271 55.6345C106.49 56.2849 106.446 56.9946 106.149 57.6134C105.852 58.2322 105.326 58.7113 104.681 58.9494C104.649 58.9612 104.617 58.9724 104.585 58.9828L70.3914 70.2868C70.1211 70.3766 69.8382 70.4225 69.5534 70.4228Z" fill="#2F2E41"/>
<path d="M133.591 31.0356C126.69 31.0383 120.06 33.7197 115.106 38.5122C110.151 43.3047 107.261 49.8323 107.046 56.7134C107.038 56.9821 107.035 57.2546 107.035 57.527C107.035 62.7665 108.592 67.8884 111.51 72.2449C114.428 76.6013 118.576 79.9968 123.429 82.0019C128.281 84.007 133.621 84.5316 138.772 83.5094C143.924 82.4872 148.656 79.9642 152.37 76.2593C156.084 72.5544 158.613 67.8341 159.638 62.6952C160.663 57.5564 160.137 52.2299 158.127 47.3892C156.117 42.5486 152.713 38.4112 148.346 35.5003C143.978 32.5893 138.844 31.0356 133.591 31.0356ZM133.591 83.2615C126.751 83.2544 120.194 80.5408 115.357 75.7162C110.521 70.8916 107.8 64.3501 107.793 57.527C107.793 57.1751 107.801 56.8269 107.816 56.4825C108.022 51.4415 109.708 46.5719 112.665 42.4793C115.623 38.3867 119.721 35.2516 124.451 33.4639C129.18 31.6761 134.332 31.3146 139.266 32.4242C144.2 33.5338 148.698 36.0657 152.201 39.7049C155.703 43.3442 158.057 47.9303 158.968 52.893C159.879 57.8556 159.307 62.9759 157.324 67.6172C155.341 72.2584 152.034 76.2158 147.815 78.9973C143.595 81.7788 138.649 83.2617 133.591 83.2615Z" fill="#3F3D56"/>
<path d="M155.975 57.527C155.975 63.4489 153.617 69.1283 149.419 73.3157C145.221 77.5031 139.528 79.8555 133.591 79.8555C127.655 79.8555 121.962 77.5031 117.764 73.3157C113.566 69.1283 111.208 63.4489 111.208 57.527C111.208 56.8193 111.242 56.123 111.306 55.4342C111.846 49.719 114.571 44.4306 118.916 40.667C123.262 36.9035 128.893 34.954 134.642 35.2233C140.39 35.4926 145.813 37.9601 149.786 42.1133C153.759 46.2666 155.975 51.7866 155.975 57.527Z" fill="#E6E6E6"/>
<path d="M140.257 59.0106C139.715 58.299 139.001 57.7354 138.182 57.3719C137.172 56.9473 136.129 56.6055 135.064 56.3501V50.2722C136.702 50.5185 138.238 51.2173 139.498 52.2893L140.735 49.6591C140.024 49.0269 139.207 48.5236 138.322 48.1718C137.341 47.7756 136.312 47.5121 135.261 47.3884V44.3078H132.397V47.4187C131.29 47.5426 130.224 47.9 129.267 48.467C128.402 48.9774 127.674 49.6889 127.146 50.5409C126.641 51.3723 126.38 52.3279 126.391 53.2998C126.342 54.3529 126.647 55.3922 127.26 56.2517C127.823 56.9958 128.567 57.5845 129.422 57.9623C130.448 58.3994 131.509 58.75 132.594 59.0106V64.8349C130.661 64.6894 128.819 63.9564 127.317 62.7345L126.08 65.3685C126.92 66.0613 127.875 66.6018 128.902 66.9655C130.028 67.3673 131.204 67.6119 132.397 67.6922V70.7462H135.261V67.6354C136.852 67.462 138.344 66.7796 139.514 65.6902C140.029 65.1973 140.436 64.603 140.709 63.9451C140.982 63.2871 141.115 62.5798 141.1 61.8678C141.147 60.8482 140.851 59.8422 140.257 59.0106ZM132.594 55.7067C131.896 55.4956 131.247 55.1483 130.685 54.6849C130.463 54.4873 130.287 54.243 130.17 53.9694C130.053 53.6959 129.999 53.4 130.01 53.103C129.989 52.4289 130.238 51.7742 130.701 51.2826C131.214 50.7669 131.876 50.4242 132.594 50.3025V55.7067ZM136.862 63.7601C136.378 64.2552 135.748 64.5828 135.064 64.6948V59.6842C135.717 59.8592 136.329 60.1643 136.862 60.5811C137.064 60.7532 137.224 60.9684 137.331 61.2108C137.438 61.4533 137.489 61.7166 137.48 61.9814C137.507 62.6309 137.286 63.2663 136.862 63.7601Z" fill="#F5A832"/>
<path d="M70.7728 102.473C70.1863 102.472 69.6165 102.278 69.1518 101.921C68.6871 101.564 68.3534 101.065 68.2024 100.499L66.7721 95.0988C66.5931 94.42 66.6912 93.6981 67.0451 93.0914C67.3989 92.4847 67.9795 92.0428 68.6596 91.8626L113.784 79.9681C114.465 79.7908 115.188 79.8898 115.796 80.2434C116.404 80.597 116.847 81.1763 117.028 81.8548L118.24 86.4301L118.012 86.4477C106.44 87.3453 95.3665 91.5309 86.1035 98.5093L86.0377 98.541L71.4465 102.386C71.2266 102.444 71.0002 102.473 70.7728 102.473Z" fill="#2F2E41"/>
<path d="M63.2994 129.149C58.0061 128.368 52.9436 126.459 48.4571 123.551C46.2344 122.111 44.1767 120.432 42.321 118.544C40.4893 116.681 38.7371 114.563 37.8299 112.081C36.957 109.784 37.002 107.242 37.9556 104.977C38.8961 102.727 40.6927 100.941 42.9516 100.01C45.2239 99.1062 47.9694 99.0095 50.1809 99.9995C51.2347 100.46 52.1466 101.192 52.823 102.121C53.1375 102.549 53.3703 103.031 53.5098 103.543C53.6394 104.007 53.6511 104.496 53.5441 104.966C53.4144 105.435 53.1857 105.871 52.8734 106.244C52.561 106.618 52.1722 106.92 51.733 107.132C50.7664 107.626 49.719 107.945 48.6402 108.073C47.5551 108.22 45.9964 108.355 45.1241 107.486C44.9445 107.314 44.8033 107.106 44.7096 106.876C44.644 106.7 44.6216 106.511 44.6442 106.324C44.6314 106.406 44.6968 106.146 44.6931 106.156C44.6793 106.195 44.6195 106.289 44.7044 106.144C44.731 106.096 44.7605 106.051 44.7929 106.007C44.7641 106.044 44.7007 106.106 44.8138 105.999C44.9073 105.897 45.0274 105.823 45.1607 105.786C45.2132 105.771 45.2665 105.758 45.3191 105.744C45.453 105.708 45.1857 105.746 45.3226 105.742C45.3755 105.74 45.4289 105.741 45.4816 105.739C45.6159 105.733 45.3491 105.702 45.4778 105.735C45.5278 105.747 45.5773 105.759 45.6265 105.775C45.7336 105.809 45.5507 105.697 45.6233 105.78C45.7083 105.879 45.534 105.685 45.6306 105.78C45.6787 105.827 45.724 105.877 45.7663 105.929C45.9338 106.094 46.1598 106.187 46.3952 106.187C46.6305 106.187 46.8565 106.094 47.024 105.929C47.1858 105.76 47.2761 105.536 47.2761 105.302C47.2761 105.068 47.1858 104.844 47.024 104.675C46.1471 103.59 44.4149 103.858 43.5279 104.775C42.3965 105.944 42.8445 107.796 43.945 108.816C45.1908 109.97 46.9552 110.051 48.5577 109.857C49.912 109.728 51.2318 109.355 52.4536 108.759C53.6677 108.164 54.6173 107.14 55.1184 105.887C55.3447 105.218 55.426 104.509 55.3569 103.806C55.2878 103.104 55.0699 102.424 54.7176 101.811C53.3028 99.1581 50.3731 97.7977 47.4773 97.5621C45.9865 97.4456 44.4872 97.6252 43.0663 98.0905C41.6455 98.5558 40.3312 99.2976 39.1997 100.273C37.0186 102.232 35.6755 104.952 35.4482 107.87C35.1955 110.896 36.3724 113.835 38.0884 116.277C39.8849 118.758 42.0287 120.97 44.4543 122.844C49.1964 126.621 54.7588 129.238 60.6965 130.486C61.4027 130.631 62.1128 130.756 62.8266 130.859C63.0537 130.914 63.2933 130.881 63.4965 130.766C63.6998 130.651 63.8514 130.463 63.9205 130.24C63.9815 130.013 63.9505 129.771 63.8343 129.567C63.718 129.363 63.5259 129.213 63.2994 129.149L63.2994 129.149Z" fill="#3F3D56"/>
<path d="M148.048 90.5937C140.293 90.4845 132.562 90.6808 124.855 91.1827C122.221 91.3542 119.942 92.283 119.942 93.8439C119.942 95.149 122.203 96.678 124.855 96.5052C132.558 96.0034 140.289 95.8071 148.048 95.9162C154.374 96.0053 154.37 90.6827 148.048 90.5937Z" fill="#CCCCCC"/>
<path d="M136.585 95.6526C135.747 95.6526 116.059 95.6214 116.059 92.9085C116.059 90.1957 135.747 90.1645 136.585 90.1645C137.424 90.1645 157.112 90.1957 157.112 92.9085C157.112 95.6214 137.424 95.6526 136.585 95.6526ZM116.829 92.9085C117.367 93.731 124.605 94.8957 136.585 94.8957C148.566 94.8957 155.804 93.731 156.342 92.9085C155.804 92.0861 148.566 90.9214 136.585 90.9214C124.605 90.9214 117.367 92.0862 116.829 92.9085V92.9085Z" fill="#3F3D56"/>
<path d="M199.052 166.971C203.411 166.851 208.835 166.7 213.014 163.655C214.258 162.711 215.281 161.507 216.01 160.127C216.738 158.747 217.156 157.226 217.233 155.668C217.318 153.263 216.447 151.164 214.78 149.759C212.598 147.919 209.411 147.488 205.976 148.495L209.534 122.553L206.922 122.196L202.739 152.694L204.92 151.695C207.449 150.538 210.921 149.949 213.078 151.768C213.608 152.243 214.021 152.834 214.284 153.494C214.548 154.155 214.655 154.867 214.598 155.576C214.534 156.735 214.221 157.867 213.679 158.894C213.137 159.922 212.38 160.821 211.459 161.53C208.207 163.9 203.883 164.206 198.979 164.342L199.052 166.971Z" fill="#3F3D56"/>
<path d="M191.829 124.79H177.628V127.42H191.829V124.79Z" fill="#3F3D56"/>
<path d="M77.1989 114.571C76.5668 114.569 75.9561 114.342 75.4761 113.932C74.9962 113.521 74.6784 112.954 74.5797 112.331L73.7128 106.813C73.6046 106.119 73.7767 105.41 74.1915 104.843C74.6064 104.275 75.2299 103.895 75.9255 103.785L122.033 96.5787C122.728 96.4708 123.438 96.6425 124.007 97.0563C124.576 97.4701 124.957 98.0921 125.067 98.7859L125.934 104.304C126.042 104.998 125.87 105.707 125.455 106.275C125.041 106.842 124.417 107.222 123.721 107.332L77.6144 114.538C77.477 114.56 77.3381 114.571 77.1989 114.571Z" fill="#2F2E41"/>
<path d="M58.1175 49.9002C68.8034 49.9002 77.466 41.2589 77.466 30.5994C77.466 19.9398 68.8034 11.2985 58.1175 11.2985C47.4316 11.2985 38.7689 19.9398 38.7689 30.5994C38.7689 41.2589 47.4316 49.9002 58.1175 49.9002Z" fill="#F5A832"/>
<path d="M69.0723 35.5933C69.6907 35.3776 70.2556 35.0322 70.729 34.5806C71.0422 34.2585 71.2811 33.872 71.4289 33.4482C71.5766 33.0244 71.6297 32.5735 71.5844 32.1271C71.5581 31.8089 71.4584 31.5011 71.293 31.2277C71.1277 30.9543 70.9013 30.7228 70.6314 30.5512C69.9311 30.1216 69.0059 30.1378 68.0717 30.5698L67.9639 23.0357L67.2052 23.0465L67.3319 31.9036L67.9095 31.5258C68.5792 31.0883 69.5415 30.7711 70.2338 31.1959C70.405 31.3084 70.548 31.4587 70.6515 31.6353C70.755 31.8118 70.8162 32.0098 70.8305 32.2138C70.8625 32.5464 70.8222 32.8819 70.7125 33.1976C70.6027 33.5132 70.4261 33.8016 70.1946 34.0431C69.3721 34.8571 68.1547 35.1299 66.7653 35.3794L66.8997 36.1242C67.6383 36.0124 68.3654 35.8347 69.0723 35.5933Z" fill="#2F2E41"/>
<path d="M75.7768 22.5069L71.7363 23.1173L71.8499 23.8656L75.8904 23.2552L75.7768 22.5069Z" fill="#2F2E41"/>
<path d="M63.0232 24.4332L58.9827 25.0436L59.0963 25.7918L63.1368 25.1814L63.0232 24.4332Z" fill="#2F2E41"/>
<path d="M70.904 114.233C70.2081 114.232 69.5292 114.019 68.9576 113.623C68.386 113.227 67.9487 112.667 67.7041 112.017L54.3638 76.3793C52.7332 72.0085 52.9074 67.171 54.8479 62.9281C56.7885 58.6852 60.337 55.3834 64.7149 53.7472L75.5621 49.7068C75.9816 49.5495 76.4281 49.4765 76.8759 49.492C77.3237 49.5075 77.7641 49.6112 78.1716 49.7971C78.5781 49.9783 78.9443 50.2385 79.2489 50.5625C79.5534 50.8864 79.7902 51.2677 79.9453 51.684L104.657 98.2271C104.817 98.6468 104.893 99.094 104.88 99.5429C104.866 99.9919 104.764 100.434 104.578 100.843C104.393 101.252 104.128 101.621 103.8 101.928C103.471 102.235 103.085 102.474 102.663 102.632L72.0972 114.017C71.7156 114.16 71.3115 114.233 70.904 114.233Z" fill="#2F2E41"/>
<path d="M72.2711 50.9325L96.7902 83.6402L80.1992 51.2758C80.0622 50.8982 79.8519 50.5512 79.5804 50.2546C79.3089 49.9581 78.9815 49.7178 78.6169 49.5475C78.2523 49.3772 77.8577 49.2802 77.4555 49.2621C77.0533 49.2439 76.6515 49.305 76.2729 49.4419L72.2711 50.9325Z" fill="#E6E6E6"/>
<path d="M111.094 75.772L67.3151 72.959C66.6251 72.9146 65.9505 72.7351 65.33 72.4308C64.7094 72.1264 64.1551 71.7031 63.6986 71.185C63.2421 70.6669 62.8923 70.0641 62.6693 69.4112C62.4463 68.7583 62.3544 68.0679 62.3988 67.3796C62.4433 66.6912 62.6232 66.0183 62.9283 65.3993C63.2335 64.7803 63.6578 64.2273 64.1772 63.7719C64.6966 63.3165 65.3008 62.9677 65.9554 62.7452C66.6099 62.5227 67.302 62.431 67.992 62.4754L111.771 65.2882C112.094 65.309 112.41 65.393 112.701 65.5355C112.991 65.6781 113.251 65.8763 113.465 66.1189C113.679 66.3616 113.842 66.6438 113.947 66.9496C114.051 67.2554 114.094 67.5787 114.074 67.9011L113.714 73.4753C113.672 74.1264 113.372 74.7341 112.881 75.1648C112.389 75.5955 111.747 75.8139 111.094 75.772Z" fill="#F5A832"/>
<path d="M99.3958 77.5754C99.3381 77.5754 99.2801 77.5735 99.222 77.5698H99.2219L63.273 75.26C62.925 75.2377 62.5847 75.1472 62.2718 74.9937C61.9588 74.8402 61.6792 74.6267 61.449 74.3654C61.2187 74.1041 61.0423 73.8001 60.9298 73.4708C60.8174 73.1415 60.771 72.7934 60.7935 72.4462L61.4082 62.9251C61.4306 62.5779 61.5214 62.2386 61.6753 61.9264C61.8292 61.6142 62.0432 61.3353 62.3052 61.1056C62.5672 60.876 62.8719 60.7 63.2021 60.5879C63.5322 60.4757 63.8812 60.4295 64.2293 60.4519L100.178 62.7616C100.881 62.8075 101.536 63.1295 102.001 63.657C102.466 64.1845 102.702 64.8744 102.658 65.5753L102.043 75.0966C102.009 75.6068 101.828 76.0964 101.522 76.5066C101.216 76.9168 100.798 77.2302 100.318 77.4093C100.023 77.5193 99.7108 77.5756 99.3958 77.5754Z" fill="#2F2E41"/>
<path d="M57.8958 17.7646C60.4412 15.5808 63.9366 17.5343 66.8556 17.1924C69.6483 16.8652 71.8535 14.3663 72.4168 11.7115C73.074 8.61431 71.4625 5.51135 69.0871 3.58028C66.4855 1.46529 63.0351 0.858129 59.7655 1.24942C56.0181 1.69788 52.5909 3.44039 49.5157 5.54804C46.5474 7.51942 43.8177 9.8268 41.3811 12.4241C39.1992 14.8279 37.3506 17.6932 36.7603 20.9278C36.2238 23.8674 36.6335 27.1249 38.3755 29.6151C39.2993 30.8915 40.5372 31.9088 41.9699 32.569C43.4637 33.3007 45.0571 33.8238 46.5043 34.6511C48.6925 35.902 50.8192 38.4957 50.1338 41.1949C49.9868 41.7845 49.6968 42.329 49.2893 42.7805C48.7996 43.3228 47.9164 42.6063 48.4074 42.0626C49.2696 41.1078 49.2357 39.8343 48.7761 38.6943C48.2297 37.4097 47.2621 36.3483 46.0319 35.684C44.517 34.8201 42.8445 34.2868 41.2919 33.4998C39.8057 32.7809 38.5157 31.7145 37.5316 30.3913C35.6733 27.8152 35.1175 24.4626 35.5389 21.3611C35.995 18.0049 37.7237 14.9551 39.8907 12.3993C42.249 9.61791 45.1459 7.26355 48.1053 5.14847C51.2807 2.87897 54.789 0.960264 58.6711 0.266299C62.0363 -0.33526 65.6839 0.0350979 68.6267 1.86446C71.3735 3.57205 73.4799 6.50945 73.6893 9.79171C73.7645 11.2851 73.4395 12.7716 72.7476 14.098C72.0557 15.4245 71.0219 16.5431 69.7528 17.3388C68.4505 18.1162 66.9363 18.4661 65.424 18.3391C63.8072 18.2359 62.1889 17.742 60.5618 17.8791C59.8255 17.9237 59.1238 18.2065 58.5632 18.6846C58.007 19.1618 57.3442 18.2378 57.8958 17.7646V17.7646Z" fill="#2F2E41"/>
</svg>
