<svg width="81" height="80" viewBox="0 0 81 80" fill="none" xmlns="http://www.w3.org/2000/svg">
<path d="M13.2957 47.7826C12.6508 47.7826 12.1263 48.3071 12.1263 48.9521C12.1263 49.597 12.6507 50.1215 13.2957 50.1215C13.9407 50.1215 14.4655 49.597 14.4655 48.9521C14.4655 48.3071 13.9407 47.7826 13.2957 47.7826Z" fill="white"/>
<path d="M53.8288 63.755C51.8444 63.755 50.23 65.3693 50.23 67.3538C50.23 69.3379 51.8444 70.9523 53.8288 70.9523C55.8129 70.9523 57.4273 69.3379 57.4273 67.3538C57.4273 65.3693 55.8129 63.755 53.8288 63.755Z" fill="white"/>
<path d="M67.0303 73.0559C66.5745 73.0559 66.2037 73.4265 66.2037 73.8823C66.2037 74.338 66.5746 74.7088 67.0303 74.7088C67.4859 74.7088 67.8565 74.338 67.8565 73.8823C67.8565 73.4265 67.486 73.0559 67.0303 73.0559Z" fill="white"/>
<path d="M59.4598 39.7379C58.5547 39.7379 57.8185 40.4743 57.8185 41.3793C57.8185 42.2844 58.5546 43.0206 59.4598 43.0206C60.3648 43.0206 61.1012 42.2845 61.1012 41.3793C61.1012 40.4743 60.3648 39.7379 59.4598 39.7379Z" fill="white"/>
<path d="M15.1739 27.2707C17.158 27.2707 18.7724 25.6564 18.7724 23.6723C18.7724 21.6879 17.1581 20.0735 15.1739 20.0735C13.1895 20.0735 11.5751 21.6878 11.5751 23.6723C11.5751 25.6564 13.1895 27.2707 15.1739 27.2707Z" fill="white"/>
<path d="M66.3135 46.0536C64.5665 46.0536 63.1451 47.475 63.1451 49.2219C63.1451 50.9689 64.5665 52.3903 66.3135 52.3903C68.0604 52.3903 69.4818 50.9689 69.4818 49.2219C69.4819 47.4751 68.0604 46.0536 66.3135 46.0536Z" fill="white"/>
<path d="M69.4742 25.6689C69.0881 25.6689 68.7742 25.9827 68.7742 26.3689C68.7742 26.7551 69.0881 27.069 69.4742 27.069C69.8604 27.069 70.1743 26.7551 70.1743 26.3689C70.1743 25.9828 69.8604 25.6689 69.4742 25.6689Z" fill="white"/>
<path d="M68.319 15.803H59.5033L59.3323 16.5019C60.8185 16.9174 62.6671 18.0247 61.8283 20.9783C60.6869 24.9993 57.711 26.2507 56.8807 26.5271L56.8576 26.6215C57.611 26.7496 60.2551 27.4082 59.555 30.2755C58.8545 33.1429 55.4422 35.6197 54.5014 36.2563L54.4542 36.4497C55.055 36.5753 56.8172 37.1366 56.4167 39.3613C55.9374 42.0327 53.2263 43.3731 53.2263 43.3731C53.2263 43.3731 54.2999 46.4857 52.7967 48.4323C52.2862 49.0933 51.715 49.5329 51.1819 49.8302L49.547 56.5159C49.3186 57.4489 48.3785 58.0223 47.4463 57.794L45.4098 57.296L45.3491 57.3545C45.3162 57.3861 45.2835 57.4185 45.2504 57.4495C45.1972 57.4997 45.1434 57.5482 45.0898 57.597C45.0544 57.6291 45.0192 57.6613 44.9837 57.6927C44.9292 57.7409 44.8745 57.7885 44.8197 57.8355C44.7858 57.8645 44.7517 57.8931 44.7177 57.9216C44.6605 57.9694 44.6033 58.0173 44.5457 58.0637C44.52 58.0844 44.4942 58.1043 44.4685 58.1247C44.2602 58.2901 44.0498 58.4463 43.8377 58.5938C43.8124 58.6113 43.7872 58.6291 43.762 58.6464C43.6972 58.6907 43.6322 58.7342 43.5672 58.7769C43.5418 58.7936 43.5163 58.8101 43.4908 58.8265C43.4233 58.8702 43.3557 58.9135 43.2879 58.9553L43.2519 58.9774C43.0197 59.1201 42.7863 59.2534 42.5525 59.3775L42.5169 59.3968L42.5165 59.3967C38.4399 61.5451 34.2492 60.9691 34.2492 60.9691L24.4071 76.6667H12.681C11.3523 76.6667 10.1651 76.0608 9.38055 75.1103C10.165 76.0609 11.3523 76.6667 12.681 76.6667H68.319C70.6812 76.6667 72.5961 74.7518 72.5961 72.3896V20.0801C72.5961 17.7179 70.6812 15.803 68.319 15.803ZM39.8486 66.5533L40.6358 65.7661C40.6886 65.7133 40.7576 65.687 40.8266 65.687C40.8957 65.687 40.9648 65.7133 41.0174 65.7661C41.1228 65.8716 41.1228 66.0423 41.0174 66.1477L40.2302 66.935C40.1248 67.0405 39.954 67.0405 39.8485 66.935C39.7431 66.8296 39.7431 66.6588 39.8486 66.5533ZM35.4509 68.0718C35.4509 67.9226 35.5716 67.8019 35.7208 67.8019H36.8341C36.9833 67.8019 37.104 67.9227 37.104 68.0718C37.104 68.221 36.9833 68.3417 36.8341 68.3417H35.7208C35.5716 68.3417 35.4509 68.221 35.4509 68.0718ZM37.5747 69.5905L36.7877 70.3775C36.6822 70.4829 36.5115 70.4829 36.406 70.3775C36.3006 70.2721 36.3006 70.1013 36.406 69.9959L37.193 69.2089C37.2458 69.1562 37.3148 69.1298 37.3838 69.1298C37.4529 69.1298 37.522 69.1562 37.5746 69.2089C37.6802 69.3142 37.6802 69.485 37.5747 69.5905ZM37.5747 66.935C37.4693 67.0405 37.2985 67.0405 37.193 66.935L36.406 66.1477C36.3006 66.0423 36.3006 65.8716 36.406 65.7661C36.4588 65.7133 36.5278 65.687 36.5968 65.687C36.6659 65.687 36.735 65.7133 36.7876 65.7661L37.5747 66.5533C37.6802 66.6588 37.6802 66.8296 37.5747 66.935ZM38.9816 71.0625C38.9816 71.2117 38.8609 71.3324 38.7118 71.3324C38.5626 71.3324 38.4419 71.2117 38.4419 71.0625V69.9495C38.4419 69.8003 38.5626 69.6796 38.7118 69.6796C38.8609 69.6796 38.9816 69.8003 38.9816 69.9495V71.0625ZM38.9816 66.1941C38.9816 66.3433 38.8609 66.464 38.7118 66.464C38.5626 66.464 38.4419 66.3433 38.4419 66.1941V65.0811C38.4419 64.9319 38.5626 64.8112 38.7118 64.8112C38.8609 64.8112 38.9816 64.9319 38.9816 65.0811V66.1941ZM41.0175 70.3775C40.912 70.4829 40.7413 70.4829 40.6358 70.3775L39.8486 69.5904C39.7432 69.4849 39.7432 69.3142 39.8486 69.2088C39.9013 69.1561 39.9704 69.1298 40.0394 69.1298C40.1084 69.1298 40.1775 69.1561 40.2302 69.2088L41.0174 69.9958C41.1229 70.1013 41.1229 70.2721 41.0175 70.3775ZM41.7025 68.3417H40.5894C40.4402 68.3417 40.3196 68.221 40.3196 68.0718C40.3196 67.9227 40.4403 67.8019 40.5894 67.8019H41.7025C41.8517 67.8019 41.9724 67.9227 41.9724 68.0718C41.9724 68.221 41.8516 68.3417 41.7025 68.3417ZM66.2962 30.5734C66.2962 30.7226 66.1754 30.8433 66.0263 30.8433H65.5384C65.3892 30.8433 65.2686 30.7225 65.2686 30.5734C65.2686 30.4243 65.3893 30.3035 65.5384 30.3035H66.0263C66.1755 30.3035 66.2962 30.4242 66.2962 30.5734ZM64.9021 29.3072L65.142 29.0673L65.1434 29.066L65.2472 28.9624C65.2999 28.9097 65.3689 28.8833 65.438 28.8833C65.5071 28.8833 65.5761 28.9097 65.6288 28.9624C65.7342 29.0678 65.7342 29.2389 65.6288 29.3441C65.604 29.3688 65.5769 29.396 65.5474 29.4221L65.5236 29.4489L65.52 29.4453L65.5236 29.4492L65.2837 29.6888C65.1783 29.7942 65.0075 29.7942 64.9021 29.6888C64.7967 29.5834 64.7967 29.4124 64.9021 29.3072ZM64.9021 31.4579C64.9549 31.4052 65.0239 31.3789 65.0929 31.3789C65.1619 31.3789 65.2311 31.4052 65.2837 31.4579L65.5239 31.6978C65.5595 31.7337 65.5832 31.7769 65.5945 31.8225L65.6288 31.8029C65.7342 31.9084 65.7342 32.0791 65.6288 32.1846C65.5233 32.2901 65.3526 32.2901 65.2471 32.1846L64.9021 31.8396C64.7967 31.7341 64.7967 31.5633 64.9021 31.4579ZM63.7477 28.7134C63.7477 28.6631 63.7615 28.6159 63.7858 28.5755L63.7477 28.565C63.7477 28.4158 63.8685 28.2951 64.0176 28.2951C64.1667 28.2951 64.2875 28.4159 64.2875 28.565V29.0526C64.2875 29.2018 64.1667 29.3225 64.0176 29.3225C63.8685 29.3225 63.7477 29.2017 63.7477 29.0526V28.7134ZM63.7477 32.0942C63.7477 31.945 63.8685 31.8243 64.0176 31.8243C64.1667 31.8243 64.2875 31.9451 64.2875 32.0942V32.5821C64.2875 32.7313 64.1667 32.8519 64.0176 32.8519C63.8685 32.8519 63.7477 32.7312 63.7477 32.5821V32.0942ZM62.4067 28.9625C62.4594 28.9097 62.5285 28.8834 62.5975 28.8834C62.6665 28.8834 62.7355 28.9097 62.7883 28.9625L62.8958 29.07L62.8966 29.0708L63.133 29.3073C63.2385 29.4127 63.2385 29.5835 63.133 29.6889C63.0276 29.7943 62.8568 29.7943 62.7514 29.6889L62.5149 29.4525L62.5136 29.4511L62.5115 29.449C62.4759 29.4135 62.4521 29.3702 62.4405 29.3246L62.4066 29.3441C62.3013 29.2387 62.3013 29.0679 62.4067 28.9625ZM53.8288 71.492C51.5468 71.492 49.6903 69.6357 49.6903 67.3537C49.6903 65.0718 51.5469 63.2152 53.8288 63.2152C56.1108 63.2152 57.9672 65.0718 57.9672 67.3537C57.9672 69.6357 56.1108 71.492 53.8288 71.492ZM59.4598 43.5604C58.2571 43.5604 57.2787 42.582 57.2787 41.3793C57.2787 40.1767 58.2571 39.1981 59.4598 39.1981C60.6624 39.1981 61.641 40.1767 61.641 41.3793C61.641 42.582 60.6624 43.5604 59.4598 43.5604ZM62.0198 30.8053L62.0092 30.8433C61.86 30.8433 61.7394 30.7226 61.7394 30.5735C61.7394 30.4243 61.8601 30.3036 62.0092 30.3036H62.4968C62.646 30.3036 62.7667 30.4243 62.7667 30.5735C62.7667 30.7226 62.646 30.8433 62.4968 30.8433H62.1576C62.1073 30.8433 62.0601 30.8296 62.0198 30.8053ZM62.4067 32.1846C62.3013 32.0794 62.3013 31.9084 62.4067 31.8029L62.5103 31.6991L62.5116 31.6977L62.7515 31.4579C62.8042 31.4051 62.8733 31.3788 62.9423 31.3788C63.0113 31.3788 63.0804 31.4051 63.1331 31.4579C63.2385 31.5631 63.2385 31.7341 63.1331 31.8395L62.8956 32.0773H62.8954L62.8935 32.0794L62.8679 32.1013C62.8413 32.1316 62.8136 32.1593 62.7883 32.1846C62.6829 32.29 62.5121 32.29 62.4067 32.1846ZM63.6926 63.3793C63.6926 63.2301 63.8134 63.1094 63.9625 63.1094H65.069C65.2182 63.1094 65.3388 63.2301 65.3388 63.3793C65.3388 63.5285 65.2181 63.6491 65.069 63.6491H63.9625C63.8134 63.6491 63.6926 63.5285 63.6926 63.3793ZM64.5392 61.3353C64.5919 61.2825 64.661 61.2562 64.73 61.2562C64.799 61.2562 64.8682 61.2825 64.9208 61.3353L65.7034 62.1175C65.8088 62.223 65.8088 62.3937 65.7034 62.4992C65.5979 62.6046 65.4272 62.6046 65.3217 62.4992L64.5392 61.7169C64.4338 61.6118 64.4338 61.4407 64.5392 61.3353ZM64.5392 65.4235C64.4338 65.3181 64.4338 65.1473 64.5392 65.0419L65.3218 64.2596C65.3745 64.2069 65.4435 64.1805 65.5126 64.1805C65.5816 64.1805 65.6507 64.2069 65.7034 64.2596C65.8088 64.365 65.8088 64.5361 65.7034 64.6413L64.9208 65.4235C64.8154 65.5289 64.6446 65.5289 64.5392 65.4235ZM67.0303 75.2486C66.2771 75.2486 65.664 74.6355 65.664 73.8822C65.664 73.129 66.2771 72.5161 67.0303 72.5161C67.7836 72.5161 68.3964 73.1289 68.3964 73.8822C68.3964 74.6355 67.7836 75.2486 67.0303 75.2486ZM66.5835 64.6241C66.7327 64.6241 66.8533 64.7449 66.8533 64.894V66.0005C66.8533 66.1497 66.7326 66.2703 66.5835 66.2703C66.4344 66.2703 66.3136 66.1496 66.3136 66.0005V64.894C66.3135 64.7449 66.4343 64.6241 66.5835 64.6241ZM66.3135 61.8648V60.7583C66.3135 60.6091 66.4343 60.4885 66.5834 60.4885C66.7325 60.4885 66.8533 60.6092 66.8533 60.7583V61.8648C66.8533 62.014 66.7325 62.1347 66.5834 62.1347C66.4343 62.1347 66.3135 62.014 66.3135 61.8648ZM68.6277 65.4235C68.5222 65.5289 68.3515 65.5289 68.246 65.4235L67.4637 64.6413C67.3583 64.5359 67.3583 64.3651 67.4637 64.2596C67.5165 64.2069 67.5855 64.1805 67.6545 64.1805C67.7235 64.1805 67.7926 64.2069 67.8453 64.2596L68.6276 65.0419C68.7332 65.1473 68.7332 65.3181 68.6277 65.4235ZM67.4638 62.1175L68.2461 61.3353C68.2988 61.2825 68.3679 61.2562 68.4369 61.2562C68.5059 61.2562 68.575 61.2825 68.6277 61.3353C68.7331 61.4407 68.7331 61.6117 68.6277 61.7169L67.8454 62.4992C67.74 62.6046 67.5692 62.6046 67.4637 62.4992C67.3583 62.3941 67.3583 62.223 67.4638 62.1175ZM69.2044 63.6491H68.0982C67.949 63.6491 67.8284 63.5284 67.8284 63.3793C67.8284 63.2301 67.9491 63.1094 68.0982 63.1094H69.2044C69.3536 63.1094 69.4743 63.2301 69.4743 63.3793C69.4743 63.5285 69.3536 63.6491 69.2044 63.6491ZM66.3135 52.9301C64.2688 52.9301 62.6054 51.2667 62.6054 49.222C62.6054 47.1773 64.2688 45.5139 66.3135 45.5139C68.3583 45.5139 70.0217 47.1773 70.0217 49.222C70.0217 51.2667 68.3583 52.9301 66.3135 52.9301ZM69.4743 27.6087C68.7906 27.6087 68.2345 27.0526 68.2345 26.3689C68.2345 25.6852 68.7906 25.1291 69.4743 25.1291C70.158 25.1291 70.7141 25.6853 70.7141 26.3689C70.7141 27.0526 70.158 27.6087 69.4743 27.6087Z" fill="#E1E1E1"/>
<path d="M17.9243 47.1003C18.0523 43.4697 21.4547 39.3815 21.035 36.1597C20.6163 32.9389 18.8539 29.9516 20.8629 27.8684C22.8718 25.7858 30.4507 23.3189 32.146 18.3402L32.1472 18.3375L32.767 15.8031H12.681C10.3188 15.8031 8.40387 17.718 8.40387 20.0802V61.1366L19.2668 51.3957C19.2668 51.3956 17.7949 50.7307 17.9243 47.1003ZM15.1739 19.5337C17.4559 19.5337 19.3122 21.3903 19.3122 23.6723C19.3122 25.9543 17.4559 27.8106 15.1739 27.8106C12.8919 27.8106 11.0353 25.9543 11.0353 23.6723C11.0353 21.3903 12.8919 19.5337 15.1739 19.5337ZM15.4587 35.7031C15.4587 35.7721 15.4324 35.8412 15.3797 35.8939L14.5054 36.7681C14.4 36.8736 14.2292 36.8736 14.1237 36.7681C14.0183 36.6627 14.0183 36.4919 14.1237 36.3865L14.998 35.5122C15.1032 35.4067 15.2742 35.4067 15.3797 35.5122C15.4324 35.5649 15.4587 35.634 15.4587 35.7031ZM13.026 36.3135C12.8768 36.3135 12.7561 36.1928 12.7561 36.0437V34.8073C12.7561 34.6581 12.8769 34.5374 13.026 34.5374C13.1751 34.5374 13.2959 34.6581 13.2959 34.8073V36.0437C13.2959 36.1928 13.1752 36.3135 13.026 36.3135ZM13.2959 39.6885V40.9249C13.2959 41.0741 13.1751 41.1948 13.026 41.1948C12.8769 41.1948 12.7561 41.0741 12.7561 40.9249V39.6885C12.7561 39.5393 12.8769 39.4187 13.026 39.4187C13.1751 39.4187 13.2959 39.5393 13.2959 39.6885ZM10.6723 35.5123C10.7777 35.4068 10.9488 35.4068 11.054 35.5123L11.928 36.3865C11.9807 36.4393 12.0071 36.5083 12.0071 36.5774C12.0071 36.6465 11.9807 36.7155 11.928 36.7682C11.8225 36.8737 11.6518 36.8737 11.5463 36.7682L10.6723 35.8939C10.5669 35.7885 10.5669 35.6177 10.6723 35.5123ZM9.6974 37.8662C9.6974 37.717 9.81814 37.5963 9.96727 37.5963H11.2034C11.3526 37.5963 11.4733 37.717 11.4733 37.8662C11.4733 38.0154 11.3525 38.1361 11.2034 38.1361H9.96727C9.81814 38.1361 9.6974 38.0154 9.6974 37.8662ZM10.6723 40.2199C10.5669 40.1145 10.5669 39.9437 10.6723 39.8382L11.5463 38.9639C11.6517 38.8585 11.8225 38.8585 11.928 38.9639C11.9807 39.0167 12.0071 39.0857 12.0071 39.1547C12.0071 39.2238 11.9807 39.2929 11.928 39.3455L11.054 40.2198C10.9488 40.3253 10.7777 40.3253 10.6723 40.2199ZM13.2957 50.6613C12.3532 50.6613 11.5865 49.8946 11.5865 48.9521C11.5865 48.0095 12.3532 47.2428 13.2957 47.2428C14.2383 47.2428 15.0053 48.0095 15.0053 48.9521C15.0053 49.8946 14.2383 50.6613 13.2957 50.6613ZM15.3797 40.2199C15.2742 40.3253 15.1032 40.3253 14.998 40.2199L14.1237 39.3456C14.0183 39.2402 14.0183 39.0694 14.1237 38.964C14.2292 38.8585 14.3999 38.8585 14.5054 38.964L15.3797 39.8383C15.4324 39.891 15.4587 39.9601 15.4587 40.0291C15.4587 40.0982 15.4324 40.1672 15.3797 40.2199ZM16.0847 38.1361H14.8486C14.6994 38.1361 14.5787 38.0154 14.5787 37.8662C14.5787 37.717 14.6995 37.5963 14.8486 37.5963H16.0847C16.2339 37.5963 16.3546 37.717 16.3546 37.8662C16.3546 38.0154 16.2339 38.1361 16.0847 38.1361Z" fill="#E1E1E1"/>
<path d="M13.2958 47.2428C12.3532 47.2428 11.5865 48.0095 11.5865 48.9521C11.5865 49.8946 12.3532 50.6613 13.2958 50.6613C14.2383 50.6613 15.0053 49.8946 15.0053 48.9521C15.0053 48.0095 14.2383 47.2428 13.2958 47.2428ZM13.2958 50.1215C12.6508 50.1215 12.1263 49.597 12.1263 48.9521C12.1263 48.3071 12.6508 47.7826 13.2958 47.7826C13.9408 47.7826 14.4655 48.3071 14.4655 48.9521C14.4655 49.5971 13.9408 50.1215 13.2958 50.1215Z" fill="#333399"/>
<path d="M59.4597 39.1981C58.2571 39.1981 57.2787 40.1767 57.2787 41.3793C57.2787 42.582 58.2571 43.5604 59.4597 43.5604C60.6624 43.5604 61.641 42.582 61.641 41.3793C61.641 40.1767 60.6624 39.1981 59.4597 39.1981ZM59.4597 43.0206C58.5547 43.0206 57.8185 42.2845 57.8185 41.3793C57.8185 40.4743 58.5546 39.7379 59.4597 39.7379C60.3648 39.7379 61.1012 40.4743 61.1012 41.3793C61.1012 42.2845 60.3648 43.0206 59.4597 43.0206Z" fill="#333399"/>
<path d="M69.4743 25.1291C68.7906 25.1291 68.2345 25.6852 68.2345 26.3689C68.2345 27.0525 68.7906 27.6087 69.4743 27.6087C70.1579 27.6087 70.7141 27.0525 70.7141 26.3689C70.7141 25.6852 70.158 25.1291 69.4743 25.1291ZM69.4743 27.0689C69.0882 27.0689 68.7742 26.755 68.7742 26.3689C68.7742 25.9827 69.0882 25.6688 69.4743 25.6688C69.8604 25.6688 70.1743 25.9827 70.1743 26.3689C70.1743 26.755 69.8604 27.0689 69.4743 27.0689Z" fill="white"/>
<path d="M66.3135 45.5138C64.2688 45.5138 62.6053 47.1772 62.6053 49.2219C62.6053 51.2667 64.2688 52.9301 66.3135 52.9301C68.3583 52.9301 70.0216 51.2667 70.0216 49.2219C70.0217 47.1772 68.3583 45.5138 66.3135 45.5138ZM66.3135 52.3903C64.5666 52.3903 63.1451 50.9689 63.1451 49.2219C63.1451 47.475 64.5666 46.0536 66.3135 46.0536C68.0604 46.0536 69.4818 47.475 69.4818 49.2219C69.4819 50.9689 68.0604 52.3903 66.3135 52.3903Z" fill="white"/>
<path d="M67.0304 72.5161C66.2771 72.5161 65.6641 73.1289 65.6641 73.8823C65.6641 74.6355 66.2771 75.2486 67.0304 75.2486C67.7837 75.2486 68.3965 74.6355 68.3965 73.8823C68.3965 73.1289 67.7837 72.5161 67.0304 72.5161ZM67.0304 74.7087C66.5747 74.7087 66.2039 74.3379 66.2039 73.8822C66.2039 73.4265 66.5747 73.0559 67.0304 73.0559C67.4861 73.0559 67.8567 73.4265 67.8567 73.8822C67.8567 74.3379 67.4861 74.7087 67.0304 74.7087Z" fill="white"/>
<path d="M15.1739 27.8105C17.4559 27.8105 19.3122 25.9542 19.3122 23.6723C19.3122 21.3903 17.4559 19.5337 15.1739 19.5337C12.8919 19.5337 11.0353 21.3903 11.0353 23.6723C11.0353 25.9543 12.8919 27.8105 15.1739 27.8105ZM15.1739 20.0735C17.158 20.0735 18.7724 21.6879 18.7724 23.6723C18.7724 25.6565 17.1581 27.2708 15.1739 27.2708C13.1895 27.2708 11.5751 25.6565 11.5751 23.6723C11.5751 21.6879 13.1895 20.0735 15.1739 20.0735Z" fill="#333399"/>
<path d="M53.8288 63.2152C51.5468 63.2152 49.6903 65.0718 49.6903 67.3537C49.6903 69.6357 51.5469 71.492 53.8288 71.492C56.1108 71.492 57.9672 69.6357 57.9672 67.3537C57.9672 65.0717 56.1108 63.2152 53.8288 63.2152ZM53.8288 70.9522C51.8444 70.9522 50.23 69.3379 50.23 67.3537C50.23 65.3693 51.8444 63.7549 53.8288 63.7549C55.813 63.7549 57.4274 65.3693 57.4274 67.3537C57.4274 69.3379 55.813 70.9522 53.8288 70.9522Z" fill="#333399"/>
<path d="M62.4407 29.3246C62.4523 29.3702 62.476 29.4134 62.5116 29.449L62.5137 29.4511L62.5151 29.4525L62.7515 29.6889C62.8569 29.7943 63.0277 29.7943 63.1331 29.6889C63.2386 29.5835 63.2386 29.4127 63.1331 29.3073L62.8967 29.0708L62.8959 29.07L62.7884 28.9625C62.7357 28.9097 62.6666 28.8834 62.5976 28.8834C62.5285 28.8834 62.4595 28.9097 62.4068 28.9625C62.3014 29.0679 62.3014 29.2387 62.4068 29.3441L62.4407 29.3246Z" fill="white"/>
<path d="M65.2471 32.1846C65.3525 32.2901 65.5233 32.2901 65.6288 32.1846C65.7342 32.0791 65.7342 31.9084 65.6288 31.8029L65.5945 31.8225C65.5832 31.7769 65.5594 31.7337 65.5239 31.6978L65.2838 31.4579C65.231 31.4052 65.162 31.3789 65.093 31.3789C65.024 31.3789 64.9548 31.4052 64.9022 31.4579C64.7968 31.5634 64.7968 31.7341 64.9022 31.8396L65.2471 32.1846Z" fill="white"/>
<path d="M62.7667 30.5734C62.7667 30.4242 62.646 30.3035 62.4968 30.3035H62.0092C61.86 30.3035 61.7394 30.4243 61.7394 30.5734C61.7394 30.7225 61.8601 30.8433 62.0092 30.8433L62.0198 30.8053C62.0601 30.8295 62.1073 30.8433 62.1576 30.8433H62.4968C62.646 30.8433 62.7667 30.7225 62.7667 30.5734Z" fill="white"/>
<path d="M65.2684 30.5734C65.2684 30.7226 65.3892 30.8433 65.5383 30.8433H66.0262C66.1754 30.8433 66.296 30.7225 66.296 30.5734C66.296 30.4243 66.1753 30.3035 66.0262 30.3035H65.5383C65.3892 30.3035 65.2684 30.4242 65.2684 30.5734Z" fill="white"/>
<path d="M62.868 32.1013L62.8936 32.0794L62.8955 32.0773H62.8957L63.1332 31.8395C63.2387 31.7341 63.2387 31.5631 63.1332 31.4579C63.0805 31.4051 63.0115 31.3788 62.9424 31.3788C62.8733 31.3788 62.8043 31.4051 62.7516 31.4579L62.5117 31.6977L62.5104 31.6991L62.4068 31.8029C62.3014 31.9084 62.3014 32.0794 62.4068 32.1846C62.5122 32.2901 62.683 32.2901 62.7885 32.1846C62.8137 32.1593 62.8413 32.1316 62.868 32.1013Z" fill="white"/>
<path d="M65.2838 29.6889L65.5237 29.4493L65.52 29.4453L65.5237 29.449L65.5474 29.4221C65.5769 29.3961 65.6041 29.3689 65.6289 29.3441C65.7343 29.2389 65.7343 29.0679 65.6289 28.9625C65.5761 28.9097 65.5071 28.8834 65.4381 28.8834C65.369 28.8834 65.3 28.9097 65.2472 28.9625L65.1434 29.0661L65.142 29.0674L64.9022 29.3073C64.7968 29.4125 64.7968 29.5835 64.9022 29.6889C65.0076 29.7943 65.1783 29.7943 65.2838 29.6889Z" fill="white"/>
<path d="M64.0175 32.8519C64.1668 32.8519 64.2874 32.7312 64.2874 32.5821V32.0942C64.2874 31.945 64.1667 31.8243 64.0175 31.8243C63.8684 31.8243 63.7477 31.9451 63.7477 32.0942V32.5821C63.7477 32.7312 63.8683 32.8519 64.0175 32.8519Z" fill="white"/>
<path d="M64.0175 29.3225C64.1668 29.3225 64.2874 29.2017 64.2874 29.0526V28.565C64.2874 28.4158 64.1667 28.2951 64.0175 28.2951C63.8684 28.2951 63.7477 28.4159 63.7477 28.565L63.7857 28.5755C63.7614 28.6159 63.7477 28.6631 63.7477 28.7134V29.0526C63.7477 29.2018 63.8683 29.3225 64.0175 29.3225Z" fill="white"/>
<path d="M65.7034 62.4992C65.8088 62.3937 65.8088 62.223 65.7034 62.1175L64.9209 61.3353C64.8681 61.2825 64.7991 61.2562 64.7301 61.2562C64.6611 61.2562 64.5919 61.2825 64.5393 61.3353C64.4339 61.4407 64.4339 61.6117 64.5393 61.7169L65.3218 62.4992C65.4271 62.6047 65.5979 62.6047 65.7034 62.4992Z" fill="white"/>
<path d="M67.8455 64.2596C67.7927 64.2069 67.7237 64.1805 67.6547 64.1805C67.5856 64.1805 67.5165 64.2069 67.4639 64.2596C67.3584 64.365 67.3584 64.5358 67.4639 64.6413L68.2461 65.4235C68.3516 65.5289 68.5223 65.5289 68.6278 65.4235C68.7332 65.3181 68.7332 65.1473 68.6278 65.0419L67.8455 64.2596Z" fill="white"/>
<path d="M65.3388 63.3793C65.3388 63.2301 65.2181 63.1094 65.069 63.1094H63.9625C63.8133 63.1094 63.6926 63.2301 63.6926 63.3793C63.6926 63.5285 63.8134 63.6491 63.9625 63.6491H65.069C65.2181 63.6491 65.3388 63.5285 65.3388 63.3793Z" fill="white"/>
<path d="M69.2045 63.1094H68.0982C67.949 63.1094 67.8284 63.2301 67.8284 63.3792C67.8284 63.5284 67.9491 63.6491 68.0982 63.6491H69.2045C69.3537 63.6491 69.4743 63.5283 69.4743 63.3792C69.4743 63.2301 69.3536 63.1094 69.2045 63.1094Z" fill="white"/>
<path d="M65.7034 64.2596C65.6507 64.2069 65.5816 64.1805 65.5126 64.1805C65.4435 64.1805 65.3745 64.2069 65.3218 64.2596L64.5393 65.0419C64.4339 65.1473 64.4339 65.3181 64.5393 65.4235C64.6447 65.5289 64.8155 65.5289 64.9209 65.4235L65.7035 64.6413C65.8088 64.5361 65.8088 64.365 65.7034 64.2596Z" fill="white"/>
<path d="M67.8455 62.4992L68.6277 61.7169C68.7331 61.6117 68.7331 61.4407 68.6277 61.3353C68.575 61.2825 68.5059 61.2562 68.4369 61.2562C68.3679 61.2562 68.2988 61.2825 68.2461 61.3353L67.4639 62.1175C67.3584 62.223 67.3584 62.394 67.4639 62.4992C67.5693 62.6047 67.7401 62.6047 67.8455 62.4992Z" fill="white"/>
<path d="M66.3135 66.0005C66.3135 66.1497 66.4342 66.2703 66.5833 66.2703C66.7325 66.2703 66.8532 66.1496 66.8532 66.0005V64.894C66.8532 64.7448 66.7325 64.6241 66.5833 64.6241C66.4342 64.6241 66.3135 64.7449 66.3135 64.894V66.0005Z" fill="white"/>
<path d="M66.5835 62.1347C66.7327 62.1347 66.8533 62.0139 66.8533 61.8648V60.7583C66.8533 60.6091 66.7326 60.4885 66.5835 60.4885C66.4343 60.4885 66.3136 60.6092 66.3136 60.7583V61.8648C66.3135 62.014 66.4343 62.1347 66.5835 62.1347Z" fill="white"/>
<path d="M36.7877 65.766C36.7349 65.7133 36.6659 65.687 36.5969 65.687C36.5278 65.687 36.4587 65.7133 36.4061 65.766C36.3007 65.8715 36.3007 66.0422 36.4061 66.1477L37.1931 66.935C37.2985 67.0405 37.4693 67.0405 37.5747 66.935C37.6801 66.8296 37.6801 66.6588 37.5747 66.5533L36.7877 65.766Z" fill="white"/>
<path d="M40.2302 69.2088C40.1775 69.1561 40.1084 69.1297 40.0394 69.1297C39.9704 69.1297 39.9012 69.1561 39.8486 69.2088C39.7432 69.3142 39.7432 69.485 39.8486 69.5904L40.6359 70.3775C40.7413 70.4829 40.9121 70.4829 41.0175 70.3775C41.1229 70.272 41.1229 70.1013 41.0175 69.9958L40.2302 69.2088Z" fill="white"/>
<path d="M37.104 68.0718C37.104 67.9226 36.9833 67.8019 36.8341 67.8019H35.7208C35.5716 67.8019 35.4509 67.9227 35.4509 68.0718C35.4509 68.2209 35.5717 68.3416 35.7208 68.3416H36.8341C36.9833 68.3416 37.104 68.2209 37.104 68.0718Z" fill="white"/>
<path d="M41.7025 67.8019H40.5894C40.4402 67.8019 40.3196 67.9226 40.3196 68.0717C40.3196 68.2208 40.4403 68.3416 40.5894 68.3416H41.7025C41.8517 68.3416 41.9724 68.2208 41.9724 68.0717C41.9724 67.9226 41.8516 67.8019 41.7025 67.8019Z" fill="white"/>
<path d="M37.3839 69.1297C37.3148 69.1297 37.2457 69.1561 37.1931 69.2088L36.4061 69.9958C36.3007 70.1013 36.3007 70.272 36.4061 70.3775C36.5115 70.4829 36.6823 70.4829 36.7877 70.3775L37.5747 69.5904C37.6801 69.4849 37.6801 69.3142 37.5747 69.2088C37.522 69.1561 37.4529 69.1297 37.3839 69.1297Z" fill="white"/>
<path d="M40.2302 66.935L41.0174 66.1477C41.1228 66.0422 41.1228 65.8715 41.0174 65.766C40.9647 65.7133 40.8956 65.687 40.8266 65.687C40.7576 65.687 40.6885 65.7133 40.6358 65.766L39.8486 66.5533C39.7432 66.6587 39.7432 66.8295 39.8486 66.935C39.954 67.0405 40.1248 67.0405 40.2302 66.935Z" fill="white"/>
<path d="M38.7118 69.6795C38.5626 69.6795 38.4419 69.8003 38.4419 69.9494V71.0624C38.4419 71.2116 38.5626 71.3323 38.7118 71.3323C38.8609 71.3323 38.9816 71.2116 38.9816 71.0624V69.9494C38.9816 69.8003 38.861 69.6795 38.7118 69.6795Z" fill="white"/>
<path d="M38.7118 64.8112C38.5626 64.8112 38.4419 64.9319 38.4419 65.0811V66.1941C38.4419 66.3433 38.5626 66.464 38.7118 66.464C38.8609 66.464 38.9816 66.3433 38.9816 66.1941V65.0811C38.9816 64.9319 38.861 64.8112 38.7118 64.8112Z" fill="white"/>
<path d="M14.998 35.5123L14.1237 36.3865C14.0183 36.4919 14.0183 36.6627 14.1237 36.7682C14.2292 36.8737 14.3999 36.8737 14.5054 36.7682L15.3797 35.8939C15.4324 35.8412 15.4587 35.7722 15.4587 35.7031C15.4587 35.6341 15.4324 35.565 15.3797 35.5123C15.2743 35.4068 15.1032 35.4068 14.998 35.5123Z" fill="white"/>
<path d="M12.007 39.1548C12.007 39.0857 11.9807 39.0167 11.928 38.964C11.8225 38.8585 11.6518 38.8585 11.5463 38.964L10.6723 39.8383C10.5668 39.9437 10.5668 40.1145 10.6723 40.2199C10.7777 40.3254 10.9488 40.3254 11.054 40.2199L11.928 39.3457C11.9807 39.2929 12.007 39.2239 12.007 39.1548Z" fill="white"/>
<path d="M13.2959 34.8072C13.2959 34.658 13.1752 34.5373 13.026 34.5373C12.8769 34.5373 12.7562 34.6581 12.7562 34.8072V36.0436C12.7562 36.1928 12.8769 36.3135 13.026 36.3135C13.1752 36.3135 13.2959 36.1927 13.2959 36.0436V34.8072Z" fill="white"/>
<path d="M13.026 39.4186C12.8768 39.4186 12.7562 39.5393 12.7562 39.6885V40.9249C12.7562 41.0741 12.8769 41.1947 13.026 41.1947C13.1752 41.1947 13.2959 41.074 13.2959 40.9249V39.6885C13.2959 39.5393 13.1752 39.4186 13.026 39.4186Z" fill="white"/>
<path d="M11.5464 36.7681C11.6518 36.8736 11.8226 36.8736 11.928 36.7681C11.9808 36.7155 12.0071 36.6464 12.0071 36.5773C12.0071 36.5083 11.9808 36.4392 11.928 36.3865L11.054 35.5122C10.9489 35.4067 10.7778 35.4067 10.6724 35.5122C10.5669 35.6176 10.5669 35.7884 10.6724 35.8938L11.5464 36.7681Z" fill="white"/>
<path d="M14.5054 38.964C14.4 38.8585 14.2292 38.8585 14.1237 38.964C14.0183 39.0694 14.0183 39.2402 14.1237 39.3456L14.998 40.2199C15.1032 40.3253 15.2742 40.3253 15.3797 40.2199C15.4324 40.1672 15.4587 40.0981 15.4587 40.0291C15.4587 39.96 15.4324 39.8909 15.3797 39.8382L14.5054 38.964Z" fill="white"/>
<path d="M11.4734 37.8662C11.4734 37.717 11.3526 37.5963 11.2035 37.5963H9.96738C9.81818 37.5963 9.69751 37.717 9.69751 37.8662C9.69751 38.0154 9.81824 38.1361 9.96738 38.1361H11.2035C11.3526 38.1361 11.4734 38.0154 11.4734 37.8662Z" fill="white"/>
<path d="M16.0847 37.5963H14.8486C14.6994 37.5963 14.5787 37.717 14.5787 37.8662C14.5787 38.0154 14.6995 38.1361 14.8486 38.1361H16.0847C16.2339 38.1361 16.3546 38.0154 16.3546 37.8662C16.3546 37.717 16.2339 37.5963 16.0847 37.5963Z" fill="white"/>
<path d="M45.3492 57.3544L45.41 57.296L45.4098 57.2959L45.3492 57.3544Z" fill="#FB7F84"/>
<path d="M12.6811 76.6666H24.4073L34.2493 60.969C34.2493 60.969 38.4401 61.545 42.5167 59.3966C39.4167 58.5247 36.3773 57.4245 33.4076 56.1176C32.4748 55.703 31.5519 55.2782 30.6391 54.8405L31.0957 54.2943C31.1983 54.1535 31.295 54.0107 31.3887 53.8671C33.2045 51.0833 33.3769 47.8066 32.8518 44.7498C32.3251 41.6841 31.0987 38.8413 30.1253 36.9398C29.3684 35.4611 28.7649 34.5509 28.7649 34.5509C29.4997 34.3836 30.2191 34.0971 30.9127 33.7202C32.1785 33.0324 33.3543 32.0351 34.3643 30.8617C35.6346 29.3857 36.6423 27.6353 37.2347 25.8814C37.5567 24.9284 37.7533 23.9757 37.8059 23.0649C37.8426 22.4276 37.808 21.8118 37.6925 21.2317C37.6691 21.1147 37.6457 20.9977 37.6158 20.8838C37.1024 18.9287 35.9639 17.9514 34.8539 17.6047C33.6057 17.2149 32.3938 17.6231 32.1473 18.3375L32.1461 18.3402C30.4509 23.3189 22.8719 25.7858 20.8631 27.8684C18.8539 29.9517 20.6164 32.9389 21.0351 36.1597L21.0321 36.1359C22.0433 38.5949 21.6312 41.6219 21.2751 44.2587C21.0927 45.171 20.9101 46.1743 21.3661 46.9041C22.6432 49.2761 24.5587 51.5569 23.5556 54.111C22.7725 56.0247 14.9111 63.2381 8.40405 68.8088V72.3895C8.40405 72.5372 8.41152 72.6831 8.42612 72.8269C8.48452 73.402 8.65685 73.9435 8.92025 74.4283C9.05192 74.6707 9.20639 74.8989 9.38072 75.1102C10.1652 76.0607 11.3524 76.6666 12.6811 76.6666Z" fill="#FCD290"/>
<path d="M52.7967 48.4323C54.2999 46.4857 53.2263 43.3731 53.2263 43.3731C53.2263 43.3731 55.9373 42.0327 56.4167 39.3613C56.8171 37.1366 55.0549 36.5753 54.4541 36.4497L51.182 49.8301C51.7151 49.5329 52.2862 49.0933 52.7967 48.4323Z" fill="#FCAC6F"/>
<path d="M61.8282 20.9783C62.667 18.0247 60.8184 16.9174 59.3323 16.5019L56.8806 26.5272C57.7109 26.2507 60.6868 24.9993 61.8282 20.9783Z" fill="#FCAC6F"/>
<path d="M59.5551 30.2755C60.2551 27.4082 57.611 26.7496 56.8577 26.6215L54.5015 36.2563C55.4421 35.6197 58.8545 33.143 59.5551 30.2755Z" fill="#FCAC6F"/>
<path d="M31.3886 53.867C31.2949 54.0106 31.1982 54.1534 31.0956 54.2943L30.639 54.8404C31.5518 55.2781 32.4747 55.7029 33.4075 56.1175C36.3772 57.4244 39.4166 58.5247 42.5166 59.3965L42.517 59.3967L42.5526 59.3774C42.7864 59.2533 43.0198 59.12 43.252 58.9773L43.288 58.9552C43.3558 58.9133 43.4234 58.87 43.4909 58.8263C43.5164 58.8099 43.5418 58.7934 43.5672 58.7767C43.6323 58.7341 43.6973 58.6906 43.762 58.6463C43.7873 58.629 43.8125 58.6112 43.8378 58.5937C44.0499 58.4463 44.2604 58.2899 44.4686 58.1246C44.4943 58.1042 44.5201 58.0843 44.5458 58.0635C44.6034 58.0171 44.6606 57.9693 44.7178 57.9215C44.7518 57.893 44.7858 57.8643 44.8198 57.8353C44.8746 57.7883 44.9293 57.7408 44.9838 57.6925C45.0193 57.6611 45.0545 57.6289 45.0898 57.5969C45.1436 57.5481 45.1972 57.4995 45.2505 57.4493C45.2836 57.4183 45.3162 57.3859 45.3492 57.3543L45.4097 57.2958L31.3886 53.867Z" fill="#FCAC6F"/>
<path d="M28.7648 34.5509C28.7648 34.5509 29.3682 35.4611 30.1252 36.9398L30.9126 33.7202C30.219 34.0971 29.4996 34.3836 28.7648 34.5509Z" fill="#502D43"/>
<path d="M34.8539 17.6047L36.2497 11.8973L56.7088 16.9L48.9363 48.6833L32.8517 44.7497C33.3768 47.8065 33.2045 51.0833 31.3887 53.867L45.4097 57.2958L45.4099 57.2959L47.4464 57.7939C48.3787 58.0222 49.3187 57.4488 49.5471 56.5159L51.1821 49.8301L54.4542 36.4497L54.5015 36.2563L56.8577 26.6215L56.8807 26.5271L59.3323 16.5019L59.5033 15.8029L60.7195 10.8296C60.9483 9.8966 60.3775 8.95453 59.4454 8.72687L37.5949 3.38353C36.6611 3.15527 35.72 3.72667 35.4919 4.66033L32.7671 15.8029L32.1473 18.3373C32.3938 17.6229 33.6057 17.2149 34.8539 17.6047ZM39.9775 51.546C39.6483 52.8919 38.2899 53.7156 36.9453 53.3867C35.6001 53.0572 34.7769 51.7007 35.1054 50.3545C35.4343 49.008 36.7919 48.1843 38.1369 48.513C39.4818 48.8419 40.3069 50.1997 39.9775 51.546ZM44.4175 9.84793C44.503 9.49527 44.8601 9.27827 45.2125 9.36447L49.9251 10.5169C50.2802 10.6039 50.4955 10.9613 50.4093 11.3133C50.323 11.6647 49.9671 11.8825 49.6131 11.7963L44.8999 10.6431C44.5473 10.5569 44.331 10.1995 44.4175 9.84793Z" fill="#502D43"/>
<path d="M56.7087 16.8999L36.2496 11.8973L34.8538 17.6046C35.9638 17.9513 37.1023 18.9286 37.6157 20.8837C37.6457 20.9975 37.6691 21.1146 37.6924 21.2315L52.6774 24.4266L48.2683 40.8908L32.6965 37.8107L34.3642 30.8616C33.3542 32.0351 32.1784 33.0323 30.9126 33.7201L30.1252 36.9397C31.0986 38.8412 32.3251 41.6839 32.8517 44.7497L48.9363 48.6833L56.7087 16.8999Z" fill="#333399"/>
<path d="M44.8999 10.6431L49.613 11.7963C49.9672 11.8825 50.323 11.6647 50.4092 11.3133C50.4955 10.9613 50.2802 10.6039 49.9251 10.5169L45.2124 9.36447C44.8601 9.27827 44.5029 9.49527 44.4175 9.84794C44.331 10.1995 44.5473 10.5569 44.8999 10.6431Z" fill="#5A384D"/>
<path d="M38.1368 48.513C36.7918 48.1843 35.4343 49.008 35.1053 50.3545C34.7768 51.7007 35.6 53.0573 36.9452 53.3867C38.2899 53.7155 39.6481 52.8919 39.9773 51.546C40.3069 50.1997 39.4818 48.8419 38.1368 48.513Z" fill="#5A384D"/>
<path d="M48.2682 40.891L52.6773 24.4267L37.6923 21.2317C37.8079 21.8118 37.8425 22.4276 37.8057 23.0649L40.4328 23.6202L39.7445 26.4065L42.3527 26.9517L41.6601 29.7035L39.0622 29.1668L39.7445 26.4065L37.2346 25.8814C36.6421 27.6354 35.6344 29.3857 34.3641 30.8617L32.6965 37.8107L48.2682 40.891ZM47.2738 39.0018L44.7381 38.4955L45.433 35.8328L47.9783 36.3458L47.2738 39.0018ZM41.6563 29.7029L44.2429 30.2368L45.6384 24.7909L50.756 25.8751L49.3207 31.2853L44.2429 30.2368L43.5463 32.9544L40.9701 32.4293L41.6563 29.7029ZM35.2039 33.7673L37.7957 34.2901L37.1313 36.9791L34.5505 36.4653L35.2039 33.7673Z" fill="#5050E0"/>
<path d="M40.4328 23.6201L37.8058 23.0649C37.7533 23.9757 37.5566 24.9283 37.2346 25.8813L39.7445 26.4064L40.4328 23.6201Z" fill="white"/>
<path d="M41.6601 29.7035L42.3527 26.9517L39.7445 26.4064L39.0623 29.1668L41.6601 29.7035Z" fill="white"/>
<path d="M44.2428 30.2368L41.6563 29.7029L40.97 32.4293L43.5462 32.9544L44.2428 30.2368Z" fill="white"/>
<path d="M50.7561 25.8751L45.6385 24.7909L44.2429 30.2368L49.3208 31.2853L50.7561 25.8751Z" fill="white"/>
<path d="M37.7957 34.2901L35.2039 33.7673L34.5505 36.4653L37.1313 36.9791L37.7957 34.2901Z" fill="white"/>
<path d="M44.738 38.4955L47.2738 39.0018L47.9782 36.3458L45.4329 35.8327L44.738 38.4955Z" fill="white"/>
<path d="M23.5554 54.1109C24.5586 51.5567 22.643 49.276 21.3659 46.904C20.9099 46.1742 21.0925 45.171 21.2749 44.2586C21.631 41.6218 22.0432 38.5949 21.0319 36.1358L21.0349 36.1596C21.4547 39.3815 18.0523 43.4696 17.9243 47.1002C17.7948 50.7307 19.2667 51.3956 19.2667 51.3956L8.40387 61.1365V68.8088C14.9109 63.2381 22.7723 56.0247 23.5554 54.1109Z" fill="#FCAC6F"/>
</svg>
