<svg width="81" height="81" viewBox="0 0 81 81" fill="none" xmlns="http://www.w3.org/2000/svg">
<rect x="0.5" y="0.5" width="80" height="80" rx="6" fill="#E1E1E1"/>
<path d="M40.3675 6.08712C21.366 6.08712 5.95459 21.4989 5.95459 40.5C5.95459 59.5014 21.366 74.913 40.3675 74.913C59.3689 74.913 74.7803 59.5014 74.7803 40.5C74.7803 21.4989 59.3689 6.08712 40.3675 6.08712Z" fill="#5454CC"/>
<path d="M40.3675 6.08712C21.366 6.08712 5.95459 21.4989 5.95459 40.5C5.95459 50.01 9.81851 58.617 16.0572 64.8466L64.714 16.1899C58.4845 9.95111 49.8774 6.08712 40.3675 6.08712Z" fill="#333399"/>
<path d="M43.8149 17.1061C43.3337 17.1061 42.9437 17.4962 42.9436 17.9773V22.2926C41.0736 22.6937 39.3064 23.4285 37.7028 24.4706L34.6467 21.4146C34.3065 21.0745 33.755 21.0745 33.4148 21.4146L30.1069 24.7224C29.7668 25.0627 29.7668 25.6142 30.1069 25.9543L33.0744 28.9218C32.8812 29.2662 32.6722 29.601 32.4585 29.9326H29.6679C29.1867 29.9328 28.7967 30.3227 28.7967 30.8038V34.384C27.2697 34.7251 25.8277 35.326 24.5087 36.1674L21.9733 33.6285C21.6331 33.2883 21.0816 33.2883 20.7413 33.6285L17.9303 36.4395C17.5902 36.7798 17.5902 37.3313 17.9303 37.6714L20.4657 40.2102C19.6267 41.5297 19.0282 42.9718 18.6892 44.4982H15.1023C14.6212 44.4982 14.2311 44.8883 14.2311 45.3694V49.3409C14.2311 49.822 14.6212 50.2121 15.1023 50.2121H18.6824C19.0237 51.7402 19.6234 53.1838 20.4657 54.5035L17.9303 57.0389C17.5902 57.379 17.5902 57.9305 17.9303 58.2708L20.7413 61.0819C21.0816 61.422 21.6331 61.422 21.9733 61.0819L24.5087 58.5465C25.8281 59.3853 27.2704 59.9806 28.7967 60.3195V63.9099C28.7967 64.3911 29.1867 64.7811 29.6679 64.7811H33.6428C34.1239 64.7811 34.5139 64.3911 34.514 63.9099V60.3264C36.0408 59.9854 37.483 59.3879 38.802 58.5465L41.3373 61.0819C41.6776 61.422 42.2291 61.422 42.5693 61.0819L45.3803 58.2708C45.5063 58.1454 45.5906 57.9833 45.6219 57.808H48.4908C48.972 57.8078 49.362 57.4179 49.362 56.9368V52.6216C51.2319 52.2205 52.996 51.4855 54.5995 50.4435L57.6556 53.4996C57.9958 53.8397 58.5473 53.8397 58.8875 53.4996L62.1988 50.1917C62.5389 49.8514 62.5389 49.3001 62.1988 48.96L59.1427 45.9071C60.1819 44.3029 60.9121 42.5353 61.3106 40.666H65.6326C66.1137 40.666 66.5038 40.2761 66.5038 39.7948V35.1188C66.5038 34.6378 66.1137 34.2478 65.6326 34.2476H61.3208C60.9195 32.3764 60.1859 30.608 59.1427 29.0036L62.1954 25.9508C62.5364 25.6115 62.5379 25.0601 62.1989 24.719L58.8876 21.4111C58.5474 21.071 57.9959 21.071 57.6556 21.4111L54.5996 24.4671C52.996 23.4288 51.2305 22.694 49.3621 22.2959V17.9739C49.3621 17.4928 48.972 17.1027 48.4909 17.1027L43.8149 17.1061ZM44.6861 18.8553H47.6196V22.8642C47.6191 23.2918 47.9291 23.6568 48.3513 23.7252C50.504 24.0697 52.5468 24.9153 54.3136 26.1925C54.6608 26.4427 55.1381 26.4036 55.4401 26.1001L58.2715 23.2687L60.3509 25.3446L57.5126 28.176C57.2088 28.4794 57.1712 28.9589 57.4241 29.3058C58.7055 31.0716 59.5538 33.1143 59.9017 35.2682C59.9702 35.6903 60.335 36.0004 60.7627 35.9998H64.7614V38.9334H60.7525C60.3248 38.933 59.96 39.2431 59.8914 39.6653C59.547 41.818 58.7048 43.8606 57.4276 45.6274C57.1766 45.9738 57.2141 46.451 57.516 46.7539L60.3509 49.5853L58.2715 51.6612L55.4401 48.8266C55.1381 48.5236 54.6608 48.4846 54.3136 48.7343C52.5479 50.0157 50.5051 50.8638 48.3513 51.2118C47.9291 51.2798 47.6191 51.645 47.6196 52.0728V56.0715H44.407L42.845 54.5095C43.6845 53.1891 44.2826 51.7457 44.6214 50.2181H48.2084C48.6895 50.2181 49.0795 49.8279 49.0796 49.3469V46.4065C52.8319 45.1752 55.4223 41.7282 55.5456 37.7489C55.5769 37.6582 55.5931 37.5626 55.5932 37.4664C55.5933 32.2616 51.3576 28.0226 46.1528 28.0226C41.7695 28.0228 38.0406 31.0558 37.0187 35.2305C36.2142 34.874 35.38 34.5891 34.514 34.3967V30.8098C34.5142 30.6193 34.4521 30.4341 34.337 30.2823C34.5552 29.9249 34.7608 29.5609 34.9496 29.1865C35.1197 28.8497 35.0538 28.4418 34.7862 28.1757L31.9548 25.3443L34.0307 23.2684L36.8656 26.1033C37.1685 26.4053 37.6457 26.4427 37.992 26.1921C39.7578 24.9107 41.8006 24.0628 43.9544 23.7148C44.3765 23.6469 44.6865 23.2815 44.6861 22.8537L44.6861 18.8553ZM46.1528 29.7659C50.4159 29.7659 53.8509 33.2042 53.8508 37.4672C53.8508 40.7474 51.7767 43.6025 48.7426 44.6888C48.5899 44.5703 48.4019 44.5052 48.2084 44.505H44.6282C44.2872 42.9781 43.6863 41.536 42.845 40.217L45.3803 37.6816C45.7227 37.341 45.7227 36.7869 45.3803 36.4463L42.5693 33.6353C42.2291 33.2951 41.6776 33.2951 41.3373 33.6353L38.7986 36.174C38.7366 36.134 38.6705 36.1028 38.608 36.0662C39.2813 32.4338 42.4195 29.7669 46.1528 29.7667V29.7659ZM30.5391 31.6818H32.7716V34.9557C32.7711 35.3835 33.0811 35.7482 33.5032 35.8167C34.7823 36.0213 36.011 36.4439 37.148 37.0487C37.2236 37.1044 37.3075 37.1463 37.3965 37.1741C37.7807 37.3904 38.1536 37.629 38.5127 37.8886C38.8606 38.1379 39.338 38.0976 39.6392 37.7929L41.9533 35.4787L43.5324 37.0578L41.2182 39.372C40.9133 39.6744 40.8743 40.154 41.1264 40.5018C42.2031 41.9857 42.9167 43.7014 43.2091 45.5113C43.2776 45.9335 43.6424 46.2435 44.0701 46.2432H47.3371V48.4722H44.0633C43.6345 48.4719 43.2693 48.7837 43.2023 49.2071C42.9128 51.0161 42.2031 52.7319 41.1298 54.2166C40.8788 54.563 40.9163 55.0402 41.2182 55.343L43.3384 57.4632C43.3894 57.5312 43.4501 57.5922 43.5188 57.6436L43.5324 57.661L41.9533 59.2401L39.6391 56.9225C39.3363 56.6206 38.859 56.5831 38.5127 56.8336C37.0289 57.9104 35.3131 58.624 33.5032 58.9164C33.0811 58.9843 32.7711 59.3498 32.7715 59.7776V63.0446H30.5391V59.7672C30.5379 59.3408 30.2283 58.9779 29.8074 58.9096C27.9984 58.6202 26.2827 57.9104 24.7979 56.8372C24.4516 56.5862 23.9743 56.6238 23.6715 56.9262L21.3573 59.2435L19.7782 57.661L22.0924 55.3505C22.3954 55.0484 22.4344 54.5709 22.1843 54.2238C21.1075 52.74 20.3939 51.0242 20.1015 49.2144C20.036 48.7894 19.6704 48.476 19.2405 48.4759H15.9735V46.2468H19.2473C19.675 46.2473 20.0398 45.9373 20.1083 45.5151C20.3978 43.7061 21.1076 41.987 22.1809 40.5022C22.4318 40.1558 22.3943 39.6786 22.0924 39.3758L19.7782 37.0616L21.3573 35.4826L23.6715 37.8001C23.9743 38.1021 24.4516 38.1396 24.7979 37.889C26.2817 36.8122 27.9975 36.0987 29.8074 35.8063C30.2283 35.7383 30.5379 35.3751 30.5391 34.9487L30.5391 31.6818ZM31.6553 39.2097C27.162 39.2097 23.5013 42.8703 23.5013 47.3637C23.5013 51.8569 27.162 55.5177 31.6553 55.5177C36.1486 55.5177 39.8093 51.8569 39.8093 47.3637C39.8093 42.8703 36.1486 39.2097 31.6553 39.2097ZM31.6553 40.9521C35.207 40.9521 38.0669 43.8119 38.0669 47.3637C38.0669 50.9152 35.207 53.7752 31.6553 53.7752C28.1037 53.7752 25.2437 50.9152 25.2437 47.3637C25.2437 43.8119 28.1037 40.9521 31.6553 40.9521Z" fill="#7A7A7A"/>
</svg>
