<svg width="80" height="80" viewBox="0 0 80 80" fill="none" xmlns="http://www.w3.org/2000/svg">
<g clip-path="url(#clip0)">
<path d="M68.4974 72.1472H15.4404C12.0207 72.1472 9.32642 69.5951 9.32642 66.3558V16.0982C9.32642 12.8589 12.0207 10.3067 15.4404 10.3067H68.4974C71.9171 10.3067 74.6114 12.8589 74.6114 16.0982V66.3558C74.6114 69.5951 71.9171 72.1472 68.4974 72.1472Z" fill="#E1E1E1"/>
<g opacity="0.7">
<path opacity="0.7" d="M42.4871 68.2209C57.3057 68.2209 69.4301 56.7362 69.4301 42.6994C69.4301 28.6626 57.3057 17.1779 42.4871 17.1779C27.6684 17.1779 15.5441 28.6626 15.5441 42.6994C15.5441 56.7362 27.6684 68.2209 42.4871 68.2209ZM21.6581 52.908L32.6425 52.8098C33.886 56.9325 35.8549 60.9571 38.6529 64.589C31.1917 63.411 24.9741 58.9939 21.6581 52.908ZM35.3368 35.7301H49.0156C50.0518 40.2454 50.0518 44.9571 49.1192 49.4724L35.3368 49.5706C34.4042 44.9571 34.4042 40.2454 35.3368 35.7301ZM42.1762 63.6074C39.4819 60.2699 37.4094 56.638 36.2695 52.7117L48.1866 52.6135C46.943 56.5399 44.8705 60.2699 42.1762 63.6074ZM45.6995 64.6871C48.6011 60.9571 50.57 56.9325 51.8135 52.6135L63.5233 52.5153C60.1037 58.9939 53.4715 63.7055 45.6995 64.6871ZM65.9068 42.6994C65.9068 44.9571 65.4923 47.2147 64.8705 49.2761L52.5389 49.3742C53.3679 44.8589 53.3679 40.2454 52.4353 35.7301H64.6632C65.4923 37.8896 65.9068 40.2454 65.9068 42.6994ZM63.2125 32.3926H51.7099C50.4664 28.2699 48.4974 24.2454 45.6995 20.6135C53.3679 21.6933 59.7928 26.1104 63.2125 32.3926ZM48.0829 32.3926H36.2695C37.513 28.5644 39.4819 25.0307 42.1762 21.6933C44.8705 25.0307 46.8394 28.6626 48.0829 32.3926ZM38.6529 20.8098C35.9586 24.3436 33.886 28.2699 32.7461 32.3926H21.7617C25.0777 26.4049 31.1917 21.9877 38.6529 20.8098ZM31.8135 35.7301C30.8809 40.3436 30.8809 44.9571 31.8135 49.4724L20.2073 49.5706C19.3783 47.411 19.0674 45.0552 19.0674 42.6994C19.0674 40.2454 19.4819 37.8896 20.3109 35.7301H31.8135Z" fill="#333399"/>
</g>
<path d="M76.1658 76.0736C76.1658 76.0736 79.7927 76.0736 79.7927 72.638V42.1104C79.7927 38.6748 76.1658 38.6748 76.1658 38.6748H63.7306C63.7306 38.6748 60.1036 38.6748 60.1036 42.1104V72.638C60.1036 76.0736 63.7306 76.0736 63.7306 76.0736H76.1658ZM67.2539 40.8344C67.2539 40.638 67.3575 40.4417 67.4611 40.4417H72.3316C72.4352 40.4417 72.5389 40.638 72.5389 40.8344V40.9325C72.5389 41.1288 72.4352 41.3252 72.3316 41.3252H67.4611C67.3575 41.3252 67.2539 41.1288 67.2539 40.9325V40.8344ZM61.8653 42.9939H77.9275V70.0859H61.8653V42.9939Z" fill="white" stroke="black" stroke-width="0.5" stroke-miterlimit="10"/>
<path d="M20.5182 31.2147V1.66871C20.5182 0.883437 21.14 0.294479 21.969 0.294479H62.0726C62.9016 0.294479 63.5234 0.883437 63.5234 1.66871V31.2147H20.5182ZM23.1089 27.7791H60.9327V3.73006H23.1089V27.7791Z" fill="white"/>
<path d="M61.9689 0.490798C62.6943 0.490798 63.2125 0.981595 63.2125 1.66871V30.9202H20.7254V1.66871C20.7254 1.07975 21.2435 0.490798 21.9689 0.490798H61.9689ZM22.7979 27.9755H23.3161H60.6218H61.1399V27.4847V3.92638V3.43558H60.6218H23.3161H22.7979V3.92638V27.4847V27.9755ZM61.9689 0H21.9689C21.0363 0 20.2073 0.687117 20.2073 1.66871V31.411H63.7306V1.66871C63.7306 0.687117 63.0052 0 61.9689 0ZM23.3161 27.4847V3.92638H60.6218V27.4847H23.3161Z" fill="black"/>
<path d="M14.8187 34.1595C14.5078 34.1595 14.3005 33.9632 14.3005 33.6687V31.7055H69.741V33.6687C69.741 33.9632 69.5337 34.1595 69.2228 34.1595H14.8187Z" fill="white"/>
<path d="M69.43 31.9018V33.6687C69.43 33.7669 69.3264 33.865 69.2228 33.865H14.8186C14.715 33.865 14.5078 33.7669 14.5078 33.5706V31.8037H69.43V31.9018ZM69.9482 31.411H13.9896V33.6687C13.9896 34.0613 14.3005 34.454 14.8186 34.454H69.2228C69.6373 34.454 69.9482 34.1595 69.9482 33.7669V31.411Z" fill="black"/>
<path d="M41.9689 1.4724C42.2798 1.4724 42.487 1.66871 42.487 1.96319C42.487 2.25767 42.2798 2.45399 41.9689 2.45399C41.658 2.45399 41.4508 2.25767 41.4508 1.96319C41.4508 1.66871 41.658 1.4724 41.9689 1.4724ZM41.9689 0.981598C41.3471 0.981598 40.9326 1.37424 40.9326 1.96319C40.9326 2.55215 41.3471 2.94479 41.9689 2.94479C42.5906 2.94479 43.0052 2.55215 43.0052 1.96319C43.0052 1.37424 42.5906 0.981598 41.9689 0.981598Z" fill="black"/>
<path d="M70.0017 72.4684C70.4162 72.4684 70.8307 72.7629 70.8307 73.2537C70.8307 73.7445 70.5199 74.0389 70.0017 74.0389C69.4836 74.0389 69.1727 73.7445 69.1727 73.2537C69.1727 72.7629 69.5872 72.4684 70.0017 72.4684ZM70.0017 72.1739C69.38 72.1739 68.9655 72.5665 68.9655 73.1555C68.9655 73.7445 69.38 74.1371 70.0017 74.1371C70.6235 74.1371 71.038 73.7445 71.038 73.1555C71.038 72.5665 70.6235 72.1739 70.0017 72.1739Z" fill="black"/>
<path d="M3.73059 77.8405C1.76168 77.8405 0.207275 76.3681 0.207275 74.5031V40.3436C0.207275 38.4785 1.76168 37.0061 3.73059 37.0061H53.2643C55.2332 37.0061 56.7876 38.4785 56.7876 40.3436V74.5031C56.7876 76.3681 55.2332 77.8405 53.2643 77.8405H3.73059ZM3.93784 76.3681H51.0881V38.5767H3.93784V76.3681Z" fill="white"/>
<path d="M53.2643 37.3006C55.0259 37.3006 56.4767 38.6748 56.4767 40.3436V74.5031C56.4767 76.1718 55.0259 77.546 53.2643 77.546H3.73057C1.96891 77.546 0.518135 76.1718 0.518135 74.5031V40.3436C0.518135 38.6748 1.96891 37.3006 3.73057 37.3006H53.2643ZM3.62694 76.5644H4.14508H50.7772H51.2953V76.0736V38.773V38.2822H50.7772H4.14508H3.62694V38.773V76.0736V76.5644ZM53.2643 36.8098H3.73057C1.65803 36.8098 0 38.3804 0 40.3436V74.5031C0 76.4663 1.65803 78.0368 3.73057 78.0368H53.2643C55.3368 78.0368 56.9948 76.4663 56.9948 74.5031V40.3436C56.9948 38.3804 55.3368 36.8098 53.2643 36.8098ZM4.14508 76.0736V38.773H50.7772V76.0736H4.14508Z" fill="black"/>
<path d="M1.03625 57.4233C1.03625 56.9325 1.45076 56.4417 2.07252 56.4417C2.59066 56.4417 3.10879 56.9325 3.10879 57.4233C3.10879 57.9141 2.69429 58.4049 2.07252 58.4049C1.45076 58.4049 1.03625 57.9141 1.03625 57.4233Z" fill="black"/>
<path d="M53.886 59.3865C55.0306 59.3865 55.9586 58.5076 55.9586 57.4233C55.9586 56.3391 55.0306 55.4601 53.886 55.4601C52.7414 55.4601 51.8135 56.3391 51.8135 57.4233C51.8135 58.5076 52.7414 59.3865 53.886 59.3865Z" stroke="black" stroke-width="0.5" stroke-miterlimit="10"/>
</g>
<defs>
<clipPath id="clip0">
<rect width="80" height="80" fill="white"/>
</clipPath>
</defs>
</svg>
