<svg width="255" height="97" viewBox="0 0 255 97" fill="none" xmlns="http://www.w3.org/2000/svg">
<path d="M53.1 6.89999H50.7V83.2H53.1V6.89999Z" fill="#FFFFFF"/>
<path d="M53.2 6.89999H50.7V83.2H53.2V6.89999Z" fill="#FFFFFF"/>
<path d="M37 27.5C33.9 25.9 30.3 25.2 26.3 25.2C22.7 25.2 19.5 25.8 17.5 26.3C19.6 18.4 32.7 10.2 42.8 5.20001C37.2 12.8 36.8 22.6 37 27.5Z" fill="#FFFFFF"/>
<path d="M38.9 8.9C36.2 14.7 35.5 20.9 35.5 25.2C32.8 24.2 29.7 23.7 26.3 23.7C24 23.7 21.8 24 20 24.3C22.9 19 30.7 13.4 38.9 8.9ZM50.8 0C50.8 0 15.7 13.8 15.7 28.4C15.7 28.4 20.4 26.7 26.3 26.7C30.3 26.7 34.9 27.5 38.7 30.4C38.7 30.3 35.7 8.8 50.8 0Z" fill="#FFFFFF"/>
<path d="M67.5 27.5C67.7 22.6 67.3 12.8 61.7 5.20001C71.8 10.2 84.9 18.4 87 26.3C85 25.8 81.8 25.2 78.2 25.2C74.1 25.2 70.5 25.9 67.5 27.5Z" fill="#FFFFFF"/>
<path d="M65.6 8.9C73.7 13.4 81.6 19 84.5 24.2C82.7 23.9 80.5 23.6 78.2 23.6C74.8 23.6 71.8 24.1 69 25.1C68.9 20.9 68.3 14.7 65.6 8.9ZM53.7 0C68.8 8.8 65.8 30.3 65.8 30.3C69.7 27.5 74.2 26.6 78.2 26.6C84 26.6 88.8 28.3 88.8 28.3C88.7 13.8 53.7 0 53.7 0Z" fill="#FFFFFF"/>
<path d="M43.7 25.9L52.1 6.5L61.1 25.9H43.7Z" fill="#FFFFFF"/>
<path d="M52.2 10.2L58.8 24.5H46L52.2 10.2ZM52.1 4.29999C51.7 4.29999 51.4 4.49999 51.2 4.89999L42 26C41.7 26.7 42.2 27.4 42.9 27.4H61.8C62.5 27.4 63 26.6 62.7 26L53 4.89999C52.9 4.49999 52.5 4.29999 52.1 4.29999Z" fill="#FFFFFF"/>
<path d="M6 83.7C3.8 83.7 2 81.9 2 79.7C2 77.5 3.8 75.7 6 75.7H100.3C102.5 75.7 104.3 77.5 104.3 79.7C104.3 81.9 102.5 83.7 100.3 83.7H6Z" fill="#FFFFFF"/>
<path d="M100.3 77.2C101.7 77.2 102.8 78.3 102.8 79.7C102.8 81.1 101.7 82.2 100.3 82.2H6C4.6 82.2 3.5 81.1 3.5 79.7C3.5 78.3 4.6 77.2 6 77.2H100.3ZM100.3 74.2H6C3 74.2 0.5 76.7 0.5 79.7C0.5 82.7 3 85.2 6 85.2H100.3C103.3 85.2 105.8 82.7 105.8 79.7C105.8 76.7 103.4 74.2 100.3 74.2Z" fill="#FFFFFF"/>
<path d="M60.5 77.7L104.2 50.3" stroke="#FFFFFF" stroke-width="3" stroke-miterlimit="10"/>
<path d="M92.2 57.9L100.2 80" stroke="#FFFFFF" stroke-width="3" stroke-miterlimit="10"/>
<path d="M10.1 83V96.4" stroke="#FFFFFF" stroke-width="3" stroke-miterlimit="10"/>
<path d="M97.2 83V96.4" stroke="#FFFFFF" stroke-width="3" stroke-miterlimit="10"/>
<path d="M124.404 26.8633C124.404 29.1836 123.566 31.0117 121.891 32.3477C120.227 33.6836 117.906 34.3516 114.93 34.3516C112.188 34.3516 109.762 33.8359 107.652 32.8047V27.7422C109.387 28.5156 110.852 29.0605 112.047 29.377C113.254 29.6934 114.355 29.8516 115.352 29.8516C116.547 29.8516 117.461 29.623 118.094 29.166C118.738 28.709 119.061 28.0293 119.061 27.127C119.061 26.623 118.92 26.1777 118.639 25.791C118.357 25.3926 117.941 25.0117 117.391 24.6484C116.852 24.2852 115.744 23.7051 114.068 22.9082C112.498 22.1699 111.32 21.4609 110.535 20.7812C109.75 20.1016 109.123 19.3105 108.654 18.4082C108.186 17.5059 107.951 16.4512 107.951 15.2441C107.951 12.9707 108.719 11.1836 110.254 9.88281C111.801 8.58203 113.934 7.93164 116.652 7.93164C117.988 7.93164 119.26 8.08984 120.467 8.40625C121.686 8.72266 122.957 9.16797 124.281 9.74219L122.523 13.9785C121.152 13.416 120.016 13.0234 119.113 12.8008C118.223 12.5781 117.344 12.4668 116.477 12.4668C115.445 12.4668 114.654 12.707 114.104 13.1875C113.553 13.668 113.277 14.2949 113.277 15.0684C113.277 15.5488 113.389 15.9707 113.611 16.334C113.834 16.6855 114.186 17.0312 114.666 17.3711C115.158 17.6992 116.312 18.2969 118.129 19.1641C120.531 20.3125 122.178 21.4668 123.068 22.627C123.959 23.7754 124.404 25.1875 124.404 26.8633ZM142.562 34L141.842 31.4863H141.561C140.986 32.4004 140.172 33.1094 139.117 33.6133C138.062 34.1055 136.861 34.3516 135.514 34.3516C133.205 34.3516 131.465 33.7363 130.293 32.5059C129.121 31.2637 128.535 29.4824 128.535 27.1621V14.3477H133.896V25.8262C133.896 27.2441 134.148 28.3105 134.652 29.0254C135.156 29.7285 135.959 30.0801 137.061 30.0801C138.561 30.0801 139.645 29.582 140.312 28.5859C140.98 27.5781 141.314 25.9141 141.314 23.5938V14.3477H146.676V34H142.562ZM170.441 34H165.08V22.5215C165.08 21.1035 164.828 20.043 164.324 19.3398C163.82 18.625 163.018 18.2676 161.916 18.2676C160.416 18.2676 159.332 18.7715 158.664 19.7793C157.996 20.7754 157.662 22.4336 157.662 24.7539V34H152.301V14.3477H156.396L157.117 16.8613H157.416C158.014 15.9121 158.834 15.1973 159.877 14.7168C160.932 14.2246 162.127 13.9785 163.463 13.9785C165.748 13.9785 167.482 14.5996 168.666 15.8418C169.85 17.0723 170.441 18.8535 170.441 21.1855V34ZM109.234 63V37.3008H114.684V58.5H125.107V63H109.234ZM133.439 53.1387C133.439 55.084 133.756 56.5547 134.389 57.5508C135.033 58.5469 136.076 59.0449 137.518 59.0449C138.947 59.0449 139.973 58.5527 140.594 57.5684C141.227 56.5723 141.543 55.0957 141.543 53.1387C141.543 51.1934 141.227 49.7344 140.594 48.7617C139.961 47.7891 138.924 47.3027 137.482 47.3027C136.053 47.3027 135.021 47.7891 134.389 48.7617C133.756 49.7227 133.439 51.1816 133.439 53.1387ZM147.027 53.1387C147.027 56.3379 146.184 58.8398 144.496 60.6445C142.809 62.4492 140.459 63.3516 137.447 63.3516C135.561 63.3516 133.896 62.9414 132.455 62.1211C131.014 61.2891 129.906 60.0996 129.133 58.5527C128.359 57.0059 127.973 55.2012 127.973 53.1387C127.973 49.9277 128.811 47.4316 130.486 45.6504C132.162 43.8691 134.518 42.9785 137.553 42.9785C139.439 42.9785 141.104 43.3887 142.545 44.209C143.986 45.0293 145.094 46.207 145.867 47.7422C146.641 49.2773 147.027 51.0762 147.027 53.1387ZM165.379 63L164.658 60.4863H164.377C163.803 61.4004 162.988 62.1094 161.934 62.6133C160.879 63.1055 159.678 63.3516 158.33 63.3516C156.021 63.3516 154.281 62.7363 153.109 61.5059C151.938 60.2637 151.352 58.4824 151.352 56.1621V43.3477H156.713V54.8262C156.713 56.2441 156.965 57.3105 157.469 58.0254C157.973 58.7285 158.775 59.0801 159.877 59.0801C161.377 59.0801 162.461 58.582 163.129 57.5859C163.797 56.5781 164.131 54.9141 164.131 52.5938V43.3477H169.492V63H165.379ZM193.258 63H187.896V51.5215C187.896 50.1035 187.645 49.043 187.141 48.3398C186.637 47.625 185.834 47.2676 184.732 47.2676C183.232 47.2676 182.148 47.7715 181.48 48.7793C180.812 49.7754 180.479 51.4336 180.479 53.7539V63H175.117V43.3477H179.213L179.934 45.8613H180.232C180.83 44.9121 181.65 44.1973 182.693 43.7168C183.748 43.2246 184.943 42.9785 186.279 42.9785C188.564 42.9785 190.299 43.5996 191.482 44.8418C192.666 46.0723 193.258 47.8535 193.258 50.1855V63ZM215.881 43.3477V46.0723L212.805 46.8633C213.367 47.7422 213.648 48.7266 213.648 49.8164C213.648 51.9258 212.91 53.5723 211.434 54.7559C209.969 55.9277 207.93 56.5137 205.316 56.5137L204.35 56.4609L203.559 56.373C203.008 56.7949 202.732 57.2637 202.732 57.7793C202.732 58.5527 203.717 58.9395 205.686 58.9395H209.025C211.182 58.9395 212.822 59.4023 213.947 60.3281C215.084 61.2539 215.652 62.6133 215.652 64.4062C215.652 66.7031 214.691 68.4844 212.77 69.75C210.859 71.0156 208.111 71.6484 204.525 71.6484C201.783 71.6484 199.686 71.168 198.232 70.207C196.791 69.2578 196.07 67.9219 196.07 66.1992C196.07 65.0156 196.439 64.0254 197.178 63.2285C197.916 62.4316 199 61.8633 200.43 61.5234C199.879 61.2891 199.398 60.9082 198.988 60.3809C198.578 59.8418 198.373 59.2734 198.373 58.6758C198.373 57.9258 198.59 57.3047 199.023 56.8125C199.457 56.3086 200.084 55.8164 200.904 55.3359C199.873 54.8906 199.053 54.1758 198.443 53.1914C197.846 52.207 197.547 51.0469 197.547 49.7109C197.547 47.5664 198.244 45.9082 199.639 44.7363C201.033 43.5645 203.025 42.9785 205.615 42.9785C206.166 42.9785 206.816 43.0312 207.566 43.1367C208.328 43.2305 208.814 43.3008 209.025 43.3477H215.881ZM200.711 65.7773C200.711 66.5156 201.062 67.0957 201.766 67.5176C202.48 67.9395 203.477 68.1504 204.754 68.1504C206.676 68.1504 208.182 67.8867 209.271 67.3594C210.361 66.832 210.906 66.1113 210.906 65.1973C210.906 64.459 210.584 63.9492 209.939 63.668C209.295 63.3867 208.299 63.2461 206.951 63.2461H204.174C203.189 63.2461 202.363 63.4746 201.695 63.9316C201.039 64.4004 200.711 65.0156 200.711 65.7773ZM202.662 49.7812C202.662 50.8477 202.902 51.6914 203.383 52.3125C203.875 52.9336 204.619 53.2441 205.615 53.2441C206.623 53.2441 207.361 52.9336 207.83 52.3125C208.299 51.6914 208.533 50.8477 208.533 49.7812C208.533 47.4141 207.561 46.2305 205.615 46.2305C203.646 46.2305 202.662 47.4141 202.662 49.7812ZM227.271 46.793C226.135 46.793 225.244 47.1562 224.6 47.8828C223.955 48.5977 223.586 49.6172 223.492 50.9414H231.016C230.992 49.6172 230.646 48.5977 229.979 47.8828C229.311 47.1562 228.408 46.793 227.271 46.793ZM228.027 63.3516C224.863 63.3516 222.391 62.4785 220.609 60.7324C218.828 58.9863 217.938 56.5137 217.938 53.3145C217.938 50.0215 218.758 47.4785 220.398 45.6855C222.051 43.8809 224.33 42.9785 227.236 42.9785C230.014 42.9785 232.176 43.7695 233.723 45.3516C235.27 46.9336 236.043 49.1191 236.043 51.9082V54.5098H223.369C223.428 56.0332 223.879 57.2227 224.723 58.0781C225.566 58.9336 226.75 59.3613 228.273 59.3613C229.457 59.3613 230.576 59.2383 231.631 58.9922C232.686 58.7461 233.787 58.3535 234.936 57.8145V61.9629C233.998 62.4316 232.996 62.7773 231.93 63C230.863 63.2344 229.562 63.3516 228.027 63.3516ZM251.371 42.9785C252.098 42.9785 252.701 43.0312 253.182 43.1367L252.777 48.1641C252.344 48.0469 251.816 47.9883 251.195 47.9883C249.484 47.9883 248.148 48.4277 247.188 49.3066C246.238 50.1855 245.764 51.416 245.764 52.998V63H240.402V43.3477H244.463L245.254 46.6523H245.518C246.127 45.5508 246.947 44.666 247.979 43.998C249.021 43.3184 250.152 42.9785 251.371 42.9785Z" fill="#FFFFFF"/>
<path d="M125.078 91H124.094L120.332 77.7812C120.02 76.6953 119.785 75.8047 119.629 75.1094C119.504 75.7891 119.324 76.5703 119.09 77.4531C118.863 78.3359 117.605 82.8516 115.316 91H114.309L109.598 73.8672H110.852L113.852 84.9062C113.969 85.3516 114.078 85.7656 114.18 86.1484C114.281 86.5234 114.371 86.8789 114.449 87.2148C114.535 87.543 114.609 87.8633 114.672 88.1758C114.742 88.4805 114.805 88.7891 114.859 89.1016C115.047 88.0391 115.445 86.4258 116.055 84.2617L118.984 73.8672H120.309L123.742 85.7969C124.141 87.1719 124.426 88.2812 124.598 89.125C124.699 88.5625 124.828 87.9648 124.984 87.332C125.148 86.6992 126.355 82.2109 128.605 73.8672H129.812L125.078 91ZM141.491 91H132.128V73.8672H141.491V74.9688H133.323V81.4492H141.034V82.5508H133.323V89.8984H141.491V91ZM144.65 73.8672H149.349C151.466 73.8672 153.021 74.2266 154.013 74.9453C155.005 75.6641 155.501 76.75 155.501 78.2031C155.501 79.1953 155.197 80.0234 154.587 80.6875C153.986 81.3438 153.103 81.7656 151.939 81.9531V82.0234C153.306 82.2266 154.31 82.6602 154.951 83.3242C155.599 83.9805 155.923 84.8984 155.923 86.0781C155.923 87.6562 155.4 88.8711 154.353 89.7227C153.306 90.5742 151.822 91 149.9 91H144.65V73.8672ZM145.845 81.4961H149.619C151.228 81.4961 152.396 81.2305 153.123 80.6992C153.857 80.1602 154.224 79.3203 154.224 78.1797C154.224 77.0391 153.81 76.2109 152.982 75.6953C152.162 75.1797 150.935 74.9219 149.302 74.9219H145.845V81.4961ZM145.845 82.5508V89.9453H149.876C153.048 89.9453 154.634 88.6562 154.634 86.0781C154.634 83.7266 152.962 82.5508 149.619 82.5508H145.845ZM177.499 82.2695C177.499 85.1445 176.745 87.3203 175.237 88.7969C173.729 90.2656 171.515 91 168.593 91H164.491V73.8672H169.12C171.854 73.8672 173.932 74.582 175.354 76.0117C176.784 77.4414 177.499 79.5273 177.499 82.2695ZM176.198 82.3164C176.198 79.8633 175.573 78.0195 174.323 76.7852C173.081 75.543 171.253 74.9219 168.839 74.9219H165.686V89.9453H168.522C173.64 89.9453 176.198 87.4023 176.198 82.3164ZM190.08 91H180.716V73.8672H190.08V74.9688H181.912V81.4492H189.623V82.5508H181.912V89.8984H190.08V91ZM202.696 86.582C202.696 88.0117 202.168 89.1445 201.114 89.9805C200.067 90.8164 198.672 91.2344 196.93 91.2344C194.836 91.2344 193.231 91.0039 192.114 90.543V89.3477C193.348 89.8711 194.922 90.1328 196.836 90.1328C198.243 90.1328 199.356 89.8125 200.176 89.1719C201.004 88.5234 201.418 87.6758 201.418 86.6289C201.418 85.9805 201.282 85.4453 201.008 85.0234C200.735 84.5938 200.289 84.2031 199.672 83.8516C199.055 83.5 198.149 83.1211 196.953 82.7148C195.203 82.1133 193.993 81.4648 193.321 80.7695C192.657 80.0664 192.325 79.1328 192.325 77.9688C192.325 76.6875 192.825 75.6445 193.825 74.8398C194.832 74.0273 196.125 73.6211 197.703 73.6211C199.313 73.6211 200.825 73.9258 202.239 74.5352L201.805 75.5664C200.383 74.9727 199.024 74.6758 197.727 74.6758C196.461 74.6758 195.453 74.9688 194.703 75.5547C193.953 76.1406 193.578 76.9375 193.578 77.9453C193.578 78.5781 193.692 79.0977 193.918 79.5039C194.153 79.9102 194.532 80.2773 195.055 80.6055C195.578 80.9258 196.477 81.3125 197.75 81.7656C199.086 82.2266 200.09 82.6758 200.762 83.1133C201.434 83.543 201.922 84.0352 202.227 84.5898C202.539 85.1367 202.696 85.8008 202.696 86.582ZM205.597 91V73.8672H206.792V91H205.597ZM217.662 82.3633H223.978V90.1797C222.322 90.8828 220.459 91.2344 218.388 91.2344C215.685 91.2344 213.611 90.4727 212.166 88.9492C210.728 87.418 210.01 85.2539 210.01 82.457C210.01 80.7148 210.365 79.1719 211.076 77.8281C211.795 76.4766 212.818 75.4336 214.146 74.6992C215.482 73.9648 217.013 73.5977 218.74 73.5977C220.607 73.5977 222.283 73.9414 223.767 74.6289L223.287 75.707C221.802 75.0195 220.263 74.6758 218.67 74.6758C216.412 74.6758 214.619 75.375 213.291 76.7734C211.97 78.1641 211.31 80.043 211.31 82.4102C211.31 84.9883 211.939 86.9297 213.197 88.2344C214.455 89.5312 216.302 90.1797 218.74 90.1797C220.318 90.1797 221.658 89.957 222.76 89.5117V83.4883H217.662V82.3633ZM240.028 91H238.821L228.672 75.7891H228.579C228.672 77.6016 228.719 78.9688 228.719 79.8906V91H227.571V73.8672H228.766L238.903 89.0547H238.973C238.903 87.6484 238.868 86.3125 238.868 85.0469V73.8672H240.028V91ZM253.628 86.582C253.628 88.0117 253.101 89.1445 252.046 89.9805C250.999 90.8164 249.605 91.2344 247.863 91.2344C245.769 91.2344 244.163 91.0039 243.046 90.543V89.3477C244.28 89.8711 245.855 90.1328 247.769 90.1328C249.175 90.1328 250.288 89.8125 251.109 89.1719C251.937 88.5234 252.351 87.6758 252.351 86.6289C252.351 85.9805 252.214 85.4453 251.941 85.0234C251.667 84.5938 251.222 84.2031 250.605 83.8516C249.988 83.5 249.081 83.1211 247.886 82.7148C246.136 82.1133 244.925 81.4648 244.253 80.7695C243.589 80.0664 243.257 79.1328 243.257 77.9688C243.257 76.6875 243.757 75.6445 244.757 74.8398C245.765 74.0273 247.058 73.6211 248.636 73.6211C250.245 73.6211 251.757 73.9258 253.171 74.5352L252.738 75.5664C251.316 74.9727 249.956 74.6758 248.659 74.6758C247.394 74.6758 246.386 74.9688 245.636 75.5547C244.886 76.1406 244.511 76.9375 244.511 77.9453C244.511 78.5781 244.624 79.0977 244.851 79.5039C245.085 79.9102 245.464 80.2773 245.988 80.6055C246.511 80.9258 247.409 81.3125 248.683 81.7656C250.019 82.2266 251.023 82.6758 251.695 83.1133C252.366 83.543 252.855 84.0352 253.159 84.5898C253.472 85.1367 253.628 85.8008 253.628 86.582Z" fill="#FFFFFF"/>
</svg>
